<?xml version="1.0" encoding="UTF-8"?>
<svg width="145px" height="157px" viewBox="0 0 145 157" version="1.1" xmlns="http://www.w3.org/2000/svg" xmlns:xlink="http://www.w3.org/1999/xlink">
    <!-- Generator: Sketch 47 (45396) - http://www.bohemiancoding.com/sketch -->
    <title>illustration</title>
    <desc>Created with Sketch.</desc>
    <defs>
        <circle id="path-1" cx="72.5" cy="72.5" r="72.5"></circle>
        <path d="M0.0396598174,45.0569155 C0.249252391,45.168667 0.490113376,45.2323102 0.746187215,45.2323102 L61.381347,45.2323102 C62.1904338,45.2323102 62.8465753,44.599325 62.8465753,43.8181804 L62.8465753,0.606924923 L0.0396598174,0.606924923 L0.0396598174,45.0569155 L0.0396598174,45.0569155 Z" id="path-3"></path>
        <path d="M0.484260274,2.22247164 L2.87550228,0.410745834 C3.16351598,0.192475101 3.54091324,0.0840011609 3.9183105,0.0840011609 C4.29504566,0.0840011609 4.67244292,0.192475101 4.95979452,0.410745834 L34.6980365,22.9415769 C35.2786986,23.1287606 35.7004566,23.6532718 35.7004566,24.2756741 L35.7004566,67.6295331 C35.7004566,68.4106777 35.0443151,69.0436629 34.2352283,69.0436629 L0.484260274,69.0436629 L0.484260274,2.22247164 L0.484260274,2.22247164 Z" id="path-5"></path>
        <path d="M0.329726027,11.2065486 L37.4450913,11.2065486 C37.5907534,11.2065486 37.7086073,11.0874918 37.7086073,10.9426394 L37.7086073,0.401485864 C37.7086073,0.256633468 37.5907534,0.139560984 37.4450913,0.139560984 L0.329726027,0.139560984 L0.329726027,11.2065486 L0.329726027,11.2065486 Z" id="path-7"></path>
    </defs>
    <g id="Symbols" stroke="none" stroke-width="1" fill="none" fill-rule="evenodd">
        <g id="Template/Illustration-sms" transform="translate(-108.000000, 0.000000)">
            <g id="illustration" transform="translate(108.000000, 0.000000)">
                <mask id="mask-2" fill="white">
                    <use xlink:href="#path-1"></use>
                </mask>
                <use id="bg" fill="#B79E5E" xlink:href="#path-1"></use>
                <polygon id="Rectangle-3" fill-opacity="0.3" fill="#B79E5E" style="mix-blend-mode: multiply;" mask="url(#mask-2)" transform="translate(72.500000, 72.500000) scale(-1, 1) translate(-72.500000, -72.500000) " points="0 0 145 145 0 145"></polygon>
                <g id="Group-8" transform="translate(41.000000, 60.266555)">
                    <path d="M54.6573607,3.11186871 C54.6573607,4.56899121 53.4755114,5.74963745 52.0182283,5.74963745 C50.5582968,5.74963745 49.3771096,4.56899121 49.3771096,3.11186871 C49.3771096,1.65673049 50.5582968,0.4747614 52.0182283,0.4747614 C53.4755114,0.4747614 54.6573607,1.65673049 54.6573607,3.11186871" id="Fill-4" fill="#2DCCCD"></path>
                    <path d="M63.2187169,49.911032 L33.4804749,27.380201 C32.9051096,26.9443209 31.97221,26.9443209 31.3961826,27.380201 L1.66125114,49.9090477 C1.07860274,50.09557 0.655520548,50.6200812 0.655520548,51.2457906 L0.655520548,94.5989882 C0.655520548,95.37881 1.3123242,96.0137794 2.12074886,96.0137794 L62.7559087,96.0137794 C63.5656575,96.0137794 64.221137,95.3801328 64.221137,94.5989882 L64.221137,51.2457906 C64.221137,50.6233883 63.799379,50.0988771 63.2187169,49.911032" id="Fill-6" fill="#F8CD51"></path>
                </g>
                <g id="Group-15" transform="translate(42.374429, 87.236275)">
                    <g id="Group-11" transform="translate(0.000000, 23.811353)">
                        <mask id="mask-4" fill="white">
                            <use xlink:href="#path-3"></use>
                        </mask>
                        <g id="Clip-10"></g>
                        <polygon id="Fill-9" fill="#EDBA48" mask="url(#mask-4)" points="74.2399338 0.671744717 63.5192032 45.2432898 0.0396598174 0.606924923"></polygon>
                    </g>
                    <g id="Group-14" transform="translate(27.146119, 0.000000)">
                        <mask id="mask-6" fill="white">
                            <use xlink:href="#path-5"></use>
                        </mask>
                        <g id="Clip-13"></g>
                        <polygon id="Fill-12" fill="#FADE8E" mask="url(#mask-6)" points="0.484260274 -0.928841183 33.9726393 24.4183438 34.1381644 70.1110067 41.504032 69.2842237 40.9246941 -2.92171912 18.5437123 -10.1511104"></polygon>
                    </g>
                </g>
                <g id="Group-22" transform="translate(41.050228, 30.353599)">
                    <path d="M62.4055502,0.170515742 L2.35370091,0.441700593 C1.39762785,0.445669151 0.618335616,1.22615238 0.618335616,2.18522075 L0.468038813,54.2156721 C0.457445205,55.1727562 0.999705479,55.4009483 1.67835845,54.7249705 L9.90230822,46.5391566 L62.4148196,46.6066221 C63.3695685,46.6086063 64.1501849,45.8307688 64.1501849,44.8730233 L64.1422397,1.89816167 C64.1422397,0.943061852 63.3682443,0.170515742 62.4148196,0.170515742 L62.4055502,0.170515742" id="Fill-16" fill="#FFFFFF"></path>
                    <path d="M1.3636621,81.3012181 L31.3455571,102.695718 C31.9215845,103.130937 32.8551461,103.130937 33.4305114,102.695718 L63.4143927,81.3012181 L1.3636621,81.3012181 Z" id="Fill-18" fill="#BA9A3D"></path>
                    <path d="M59.5579886,30.1239407 C59.5579886,30.2687931 59.4401347,30.3871885 59.2944726,30.3871885 L5.48358219,30.3871885 C5.33725799,30.3871885 5.21940411,30.2687931 5.21940411,30.1239407 L5.21940411,19.5821257 C5.21940411,19.4379348 5.33725799,19.3208623 5.48358219,19.3208623 L59.2944726,19.3208623 C59.4401347,19.3208623 59.5579886,19.4379348 59.5579886,19.5821257 L59.5579886,30.1239407 Z" id="Fill-20" fill="#68CCCC"></path>
                </g>
                <g id="Group-25" transform="translate(62.899543, 49.534966)">
                    <mask id="mask-8" fill="white">
                        <use xlink:href="#path-7"></use>
                    </mask>
                    <g id="Clip-24"></g>
                    <path d="M0.329726027,16.5750826 L36.2744977,-19.3330987 L63.8046347,-7.10067766 C63.8046347,-7.10067766 49.5555708,23.9579248 48.5187215,24.2165425 C47.4825342,24.4751603 26.0364384,31.2045131 24.5824658,31.2045131 C23.1284932,31.2045131 3.54687215,30.7805388 3.23369863,29.1335869 C2.91986301,27.4879578 0.329726027,16.5750826 0.329726027,16.5750826" id="Fill-23" fill="#02A5A5" mask="url(#mask-8)"></path>
                </g>
                <g id="Group-36" transform="translate(56.278539, 53.503525)" fill="#FFFFFF">
                    <path d="M3.92473288,2.01272073 C3.92473288,2.95856057 3.15735845,3.72581527 2.20989269,3.72581527 C1.26308904,3.72581527 0.496376712,2.95856057 0.496376712,2.01272073 C0.496376712,1.06688089 1.26308904,0.299626188 2.20989269,0.299626188 C3.15735845,0.299626188 3.92473288,1.06688089 3.92473288,2.01272073" id="Fill-26"></path>
                    <path d="M11.3992511,2.01272073 C11.3992511,2.95856057 10.6318767,3.72581527 9.68441096,3.72581527 C8.73760731,3.72581527 7.97023288,2.95856057 7.97023288,2.01272073 C7.97023288,1.06688089 8.73760731,0.299626188 9.68441096,0.299626188 C10.6318767,0.299626188 11.3992511,1.06688089 11.3992511,2.01272073" id="Fill-28"></path>
                    <path d="M18.8750274,2.01272073 C18.8750274,2.95856057 18.1069909,3.72581527 17.1601872,3.72581527 C16.2133836,3.72581527 15.445347,2.95856057 15.445347,2.01272073 C15.445347,1.06688089 16.2133836,0.299626188 17.1601872,0.299626188 C18.1069909,0.299626188 18.8750274,1.06688089 18.8750274,2.01272073" id="Fill-30"></path>
                    <path d="M26.3501416,2.01272073 C26.3501416,2.95856057 25.582105,3.72581527 24.6353014,3.72581527 C23.6878356,3.72581527 22.9211233,2.95856057 22.9211233,2.01272073 C22.9211233,1.06688089 23.6878356,0.299626188 24.6353014,0.299626188 C25.582105,0.299626188 26.3501416,1.06688089 26.3501416,2.01272073" id="Fill-32"></path>
                    <path d="M33.8253219,2.01272073 C33.8253219,2.95856057 33.0579475,3.72581527 32.1104817,3.72581527 C31.1636781,3.72581527 30.3956416,2.95856057 30.3956416,2.01272073 C30.3956416,1.06688089 31.1636781,0.299626188 32.1104817,0.299626188 C33.0579475,0.299626188 33.8253219,1.06688089 33.8253219,2.01272073" id="Fill-34"></path>
                </g>
            </g>
        </g>
    </g>
</svg>