<?xml version="1.0" encoding="UTF-8"?>
<svg width="145px" height="155px" viewBox="0 0 145 155" version="1.1" xmlns="http://www.w3.org/2000/svg" xmlns:xlink="http://www.w3.org/1999/xlink">
    <!-- Generator: Sketch 47 (45396) - http://www.bohemiancoding.com/sketch -->
    <title>illustration</title>
    <desc>Created with Sketch.</desc>
    <defs>
        <circle id="path-1" cx="72.5" cy="72.5" r="72.5"></circle>
        <polygon id="path-3" points="144.949548 0.00659464653 0 0.00659464653 0 144.377718 144.949548 144.377718 144.949548 0.00659464653"></polygon>
        <polygon id="path-5" points="0.493728311 131.892931 74.2729064 131.892931 74.2729064 0.520581397 0.493728311 0.520581397"></polygon>
        <path d="M0.0206575342,11.18518 L37.1365525,11.18518 C37.2822146,11.18518 37.4000685,11.0664763 37.4000685,10.9220536 L37.4000685,0.412165408 C37.4000685,0.267742649 37.2822146,0.151017406 37.1365525,0.151017406 L0.0206575342,0.151017406 L0.0206575342,11.18518 L0.0206575342,11.18518 Z" id="path-7"></path>
    </defs>
    <g id="Symbols" stroke="none" stroke-width="1" fill="none" fill-rule="evenodd">
        <g id="Template/Illustration-password" transform="translate(-108.000000, 0.000000)">
            <g id="illustration" transform="translate(108.000000, 0.000000)">
                <mask id="mask-2" fill="white">
                    <use xlink:href="#path-1"></use>
                </mask>
                <use id="bg" fill="#B79E5E" xlink:href="#path-1"></use>
                <polygon id="Rectangle-3" fill-opacity="0.3" fill="#B79E5E" style="mix-blend-mode: multiply;" mask="url(#mask-2)" transform="translate(72.500000, 72.500000) scale(-1, 1) translate(-72.500000, -72.500000) " points="0 0 145 145 0 145"></polygon>
                <g id="Group-16" transform="translate(0.000000, 0.652870)">
                    <g id="Group-3">
                        <mask id="mask-4" fill="white">
                            <use xlink:href="#path-3"></use>
                        </mask>
                        <g id="Clip-2"></g>
                    </g>
                    <g id="Group-6" transform="translate(35.091324, 22.421798)">
                        <mask id="mask-6" fill="white">
                            <use xlink:href="#path-5"></use>
                        </mask>
                        <g id="Clip-5"></g>
                        <path d="M74.2729064,125.974499 C74.2729064,129.243465 71.4007146,131.893194 67.8578151,131.893194 L6.90948174,131.893194 C3.36592009,131.893194 0.493728311,129.243465 0.493728311,125.974499 L0.493728311,6.43729827 C0.493728311,3.16899145 3.36592009,0.520581397 6.90948174,0.520581397 L67.8578151,0.520581397 C71.4007146,0.520581397 74.2729064,3.16899145 74.2729064,6.43729827 L74.2729064,125.974499 Z" id="Fill-4" fill="#5BBEFF" mask="url(#mask-6)"></path>
                    </g>
                    <path d="M109.364231,144.982447 C109.364231,148.251413 106.492039,150.900483 102.949139,150.900483 L42.0008059,150.900483 C38.4572443,150.900483 35.5850525,148.251413 35.5850525,144.982447 L35.5850525,25.4459053 C35.5850525,22.1762795 38.4572443,19.5278695 42.0008059,19.5278695 L102.949139,19.5278695 C106.492039,19.5278695 109.364231,22.1762795 109.364231,25.4459053 L109.364231,144.982447 Z" id="Fill-7" fill="#237ABA"></path>
                    <polygon id="Fill-9" fill="#004481" points="35.5852511 131.352829 109.364429 131.352829 109.364429 35.4238033 35.5852511 35.4238033"></polygon>
                    <path d="M77.9196233,141.035287 C77.9196233,144.029257 75.4811073,146.457405 72.4751712,146.457405 C69.4672489,146.457405 67.0300571,144.029257 67.0300571,141.035287 C67.0300571,138.039339 69.4672489,135.61119 72.4751712,135.61119 C75.4811073,135.61119 77.9196233,138.039339 77.9196233,141.035287" id="Fill-11" fill="#004481"></path>
                    <path d="M81.9607534,24.9205757 C81.9607534,25.979676 81.0980365,26.8376395 80.0353653,26.8376395 L64.9143151,26.8376395 C63.8509817,26.8376395 62.989589,25.979676 62.989589,24.9205757 C62.989589,23.8627944 63.8509817,23.003512 64.9143151,23.003512 L80.0353653,23.003512 C81.0980365,23.003512 81.9607534,23.8627944 81.9607534,24.9205757" id="Fill-12" fill="#004481"></path>
                    <path d="M82.1405137,19.5276057 L41.232637,19.5276057 C38.6855365,19.5276057 35.5855822,22.4879425 35.5855822,24.9279617 L35.5855822,65.9763391 L82.1405137,19.5276057 Z" id="Fill-13" fill="#FFFFFF" opacity="0.3"></path>
                    <path d="M104.887968,115.052116 C104.887968,115.187306 104.778059,115.296777 104.642329,115.296777 L40.3080137,115.296777 C40.1722831,115.296777 40.0623744,115.187306 40.0623744,115.052116 L40.0623744,46.3754669 C40.0623744,46.2396172 40.1722831,46.1288271 40.3080137,46.1288271 L104.642329,46.1288271 C104.778059,46.1288271 104.887968,46.2396172 104.887968,46.3754669 L104.887968,115.052116 Z" id="Fill-14" fill="#FFFFFF"></path>
                    <path d="M99.63771,84.7824245 C99.63771,84.9268473 99.5191941,85.0448914 99.373532,85.0448914 L45.5633037,85.0448914 C45.4169795,85.0448914 45.2997877,84.9268473 45.2997877,84.7824245 L45.2997877,74.2718769 C45.2997877,74.1281136 45.4169795,74.0113883 45.5633037,74.0113883 L99.373532,74.0113883 C99.5191941,74.0113883 99.63771,74.1281136 99.63771,74.2718769 L99.63771,84.7824245 Z" id="Fill-15" fill="#68CCCC"></path>
                </g>
                <g id="Group-19" transform="translate(62.237443, 74.512911)">
                    <mask id="mask-8" fill="white">
                        <use xlink:href="#path-7"></use>
                    </mask>
                    <g id="Clip-18"></g>
                    <path d="M0.0206575342,16.5381205 L35.9654292,-19.263556 L63.4955662,-7.06741674 C63.4955662,-7.06741674 49.2471644,23.899065 48.2103151,24.1569157 C47.1741279,24.4147663 25.7273699,31.1241597 24.2740594,31.1241597 C22.8207489,31.1241597 3.23846575,30.7014429 2.92529224,29.0593759 C2.61211872,27.4186278 0.0206575342,16.5381205 0.0206575342,16.5381205" id="Fill-17" fill="#02A5A5" mask="url(#mask-8)"></path>
                </g>
                <g id="Group-32" transform="translate(55.616438, 78.469699)">
                    <path d="M3.61632648,2.01895104 C3.61632648,2.96198549 2.84895205,3.72696449 1.9021484,3.72696449 C0.954682648,3.72696449 0.187308219,2.96198549 0.187308219,2.01895104 C0.187308219,1.07591658 0.954682648,0.310937584 1.9021484,0.310937584 C2.84895205,0.310937584 3.61632648,1.07591658 3.61632648,2.01895104" id="Fill-20" fill="#FFFFFF"></path>
                    <path d="M11.0914406,2.01895104 C11.0914406,2.96198549 10.3234041,3.72696449 9.37660046,3.72696449 C8.4291347,3.72696449 7.66176027,2.96198549 7.66176027,2.01895104 C7.66176027,1.07591658 8.4291347,0.310937584 9.37660046,0.310937584 C10.3234041,0.310937584 11.0914406,1.07591658 11.0914406,2.01895104" id="Fill-22" fill="#FFFFFF"></path>
                    <path d="M18.566621,2.01895104 C18.566621,2.96198549 17.7992466,3.72696449 16.8517808,3.72696449 C15.9043151,3.72696449 15.1369406,2.96198549 15.1369406,2.01895104 C15.1369406,1.07591658 15.9043151,0.310937584 16.8517808,0.310937584 C17.7992466,0.310937584 18.566621,1.07591658 18.566621,2.01895104" id="Fill-24" fill="#FFFFFF"></path>
                    <path d="M26.0417352,2.01895104 C26.0417352,2.96198549 25.2736986,3.72696449 24.326895,3.72696449 C23.3800913,3.72696449 22.6120548,2.96198549 22.6120548,2.01895104 C22.6120548,1.07591658 23.3800913,0.310937584 24.326895,0.310937584 C25.2736986,0.310937584 26.0417352,1.07591658 26.0417352,2.01895104" id="Fill-26" fill="#FFFFFF"></path>
                    <path d="M33.5175114,2.01895104 C33.5175114,2.96198549 32.7494749,3.72696449 31.8026712,3.72696449 C30.8552055,3.72696449 30.0878311,2.96198549 30.0878311,2.01895104 C30.0878311,1.07591658 30.8552055,0.310937584 31.8026712,0.310937584 C32.7494749,0.310937584 33.5175114,1.07591658 33.5175114,2.01895104" id="Fill-28" fill="#FFFFFF"></path>
                    <path d="M56.6483881,42.8072355 L56.7112877,44.2870742" id="Fill-30" fill="#000000"></path>
                </g>
            </g>
        </g>
    </g>
</svg>