<?xml version="1.0" encoding="UTF-8"?>
<svg width="150px" height="80px" viewBox="0 0 150 80" version="1.1" xmlns="http://www.w3.org/2000/svg" xmlns:xlink="http://www.w3.org/1999/xlink">
    <!-- Generator: Sketch 46.2 (44496) - http://www.bohemiancoding.com/sketch -->
    <title>Ilustraciones Copy</title>
    <desc>Created with Sketch.</desc>
    <defs>
        <polygon id="path-1" points="25.2503796 0.182007558 0.0408888889 0.182007558 0.0408888889 44.3282798 25.2503796 44.3282798 25.2503796 0.182007558"></polygon>
        <rect id="path-3" x="0" y="1.27777778" width="25.5555556" height="44.7222222" rx="2"></rect>
        <rect id="path-5" x="0" y="0" width="25.5555556" height="44.7222222" rx="2"></rect>
    </defs>
    <g id="13_Products_Configurations_MX" stroke="none" stroke-width="1" fill="none" fill-rule="evenodd">
        <g id="MX_Product_Configurations_02_13" transform="translate(-105.000000, -114.000000)">
            <g id="Ilustraciones-Copy" transform="translate(105.000000, 114.000000)">
                <path d="M70,39.99181 C70,17.9049432 87.9037527,0.0331178538 110,0.0636550545 C110,0.0636550545 150,0.169746812 150,0 C150,0.169746812 140,80 140,80 C140,80 109.996374,79.5713768 109.996374,79.5713768 C87.9069866,79.2558141 70,61.0983628 70,39.00819 L70,39.99181 Z" id="bg-copy-7" fill="#004481" transform="translate(110.000000, 40.000000) rotate(-180.000000) translate(-110.000000, -40.000000) "></path>
                <g id="Icons/26/icon-cellphone" transform="translate(97.000000, 17.000000)">
                    <g>
                        <g id="Group-3" transform="translate(0.000000, 0.339661)">
                            <mask id="mask-2" fill="white">
                                <use xlink:href="#path-1"></use>
                            </mask>
                            <g id="Clip-2"></g>
                            <path d="M25.2503796,42.3397559 C25.2503796,43.4375379 24.2696852,44.3282798 23.0584583,44.3282798 L2.23334259,44.3282798 C1.02264815,44.3282798 0.0408888889,43.4375379 0.0408888889,42.3397559 L0.0408888889,2.17032279 C0.0408888889,1.0720193 1.02264815,0.181798953 2.23334259,0.181798953 L23.0584583,0.181798953 C24.2696852,0.181798953 25.2503796,1.0720193 25.2503796,2.17032279 L25.2503796,42.3397559 Z" id="Fill-1" fill="#2A86CA" mask="url(#mask-2)"></path>
                        </g>
                        <mask id="mask-4" fill="white">
                            <use xlink:href="#path-3"></use>
                        </mask>
                        <use id="Rectangle-3" fill="#072146" xlink:href="#path-3"></use>
                        <mask id="mask-6" fill="white">
                            <use xlink:href="#path-5"></use>
                        </mask>
                        <use id="Rectangle-3" fill="#49A5E6" xlink:href="#path-5"></use>
                        <polygon id="Fill-4" fill="#FADE8E" mask="url(#mask-6)" points="0.0409953704 37.8074346 25.5965509 37.8074346 25.5965509 5.86299017 0.0409953704 5.86299017"></polygon>
                        <path d="M14.5065579,41.3526909 C14.5065579,42.3597298 13.6738727,43.1748525 12.6463264,43.1748525 C11.6187801,43.1748525 10.7860949,42.3597298 10.7860949,41.3526909 C10.7860949,40.3466949 11.6187801,39.5310508 12.6463264,39.5310508 C13.6738727,39.5310508 14.5065579,40.3466949 14.5065579,41.3526909" id="Fill-6" fill="#004481" mask="url(#mask-6)"></path>
                        <path d="M15.3332801,0 L1.71351527,0 C0.767177944,0 -5.32407403e-05,0.798685822 -5.32407403e-05,1.7833389 L-5.32407403e-05,15.3333333 L15.3332801,0 Z" id="Fill-7" fill="#FFFFFF" opacity="0.3" mask="url(#mask-6)"></path>
                        <polygon id="icon-checkmark" fill="#388D4F" mask="url(#mask-6)" points="20.492124 15.3333333 10.6482062 25.1773092 6.34138333 20.8709504 5.11111111 22.1013386 10.6482062 27.6389557 11.9446033 26.3415662 21.7223962 16.5637215"></polygon>
                    </g>
                </g>
                <path d="M0,39.99181 C0,17.9049432 17.9037527,0.0331178538 40,0.0636550545 C40,0.0636550545 80,0.169746812 80,0 C80,0.169746812 70,80 70,80 L39.9963741,79.5713768 C17.9069866,79.2558141 0,61.0983628 0,39.00819 L0,39.99181 Z" id="bg-copy-6" fill="#1464A5"></path>
                <g id="Icons/26/icon-cuenta" transform="translate(17.000000, 24.000000)">
                    <g>
                        <path d="M40.215766,0 L0.290784906,0 C0.130313208,0 -0.000101886792,0.105 -0.000101886792,0.2345 L0.0173253476,30.2871338 C0.0173253476,30.4166338 0.130313208,30.5 0.290784906,30.5 L16.1408038,30.5 L46.7660679,30.5 C46.9265396,30.5 46.9998981,30.6345 46.9998981,30.505 L46.9998981,0.2345 C46.9998981,0.105 46.9265396,0 46.7660679,0 L40.215766,0 Z" id="Fill-1" fill="#FFFFFF"></path>
                        <path d="M9.46823774,17 L7.64140755,17 L7.64140755,6.5 L10.2028415,6.5 C10.9950113,6.5 11.6842755,7.163 11.6842755,7.925 C11.6842755,8.199 11.6267094,8.456 11.3567094,8.8455 L10.2874075,10.4005 C11.4020491,10.663 12.1483698,12.1355 12.1483698,13.6805 C12.1483698,15.5545 10.9924642,17 9.46823774,17 M12.6781811,10.3965 L13.3022377,9.2505 C14.6232,7.325 13.7138604,5 11.1065774,5 L5.09423774,5 L5.09423774,18.5 L10.9104453,18.5 C15.6308604,18.5 17.0532,12.628 12.6781811,10.3965" id="Fill-4" fill="#004481"></path>
                        <polygon id="Fill-6" fill="#E9E9E9" points="5.09433962 25 41.9056604 25 41.9056604 21.5 5.09433962 21.5"></polygon>
                        <polygon id="Fill-6" fill="#E9E9E9" points="24.9622642 18.5 41.9056604 18.5 41.9056604 15 24.9622642 15"></polygon>
                        <path d="M47,0.23435 C47,0.10485 46.9266415,-0.00015 46.7661698,-0.00015 L45.2158679,-0.00015 L14.1403962,30.49985 L46.7661698,30.49985 C46.9266415,30.49985 47,30.63435 47,30.50485 L47,0.23435 Z" id="Fill-10" fill="#E9E9E9" opacity="0.3"></path>
                    </g>
                </g>
            </g>
        </g>
    </g>
</svg>