<?xml version="1.0" encoding="UTF-8"?>
<svg width="360px" height="180px" viewBox="0 0 360 180" version="1.1" xmlns="http://www.w3.org/2000/svg" xmlns:xlink="http://www.w3.org/1999/xlink">
    <!-- Generator: Sketch 48.2 (47327) - http://www.bohemiancoding.com/sketch -->
    <title>Illustration/ATM</title>
    <desc>Created with Sketch.</desc>
    <defs>
        <polygon id="path-1" points="0 180 360 180 360 2.54241073e-14 0 2.54241073e-14"></polygon>
        <polygon id="path-3" points="0 140.042735 112.678385 140.042735 112.678385 0.939735043 0 0.939735043"></polygon>
        <polygon id="path-5" points="0.581418803 30.9252026 0.581418803 0.0434615385 35.6100667 0.0434615385 35.6100667 30.9252026 0.581418803 30.9252026"></polygon>
        <polygon id="path-7" points="112.678385 140.042735 112.678385 0.939735043 5.42101086e-20 0.939735043 5.42101086e-20 140.042735 56.339144 140.042735 112.678288 140.042735 112.678288 0.939928205 -9.65811966e-05 0.939928205 -9.65811966e-05 140.042735 56.339144 140.042735"></polygon>
    </defs>
    <g id="MX-ATM-&amp;-Branch-Locator-03-00-05" stroke="none" stroke-width="1" fill="none" fill-rule="evenodd" transform="translate(0.000000, -80.000000)">
        <g id="Illustration/ATM" transform="translate(0.000000, 80.000000)">
            <mask id="mask-2" fill="white">
                <use xlink:href="#path-1"></use>
            </mask>
            <use id="Mask" fill="#FADE8E" fill-rule="evenodd" opacity="0.696274909" xlink:href="#path-1"></use>
            <g id="clouds" stroke-width="1" fill-rule="evenodd" mask="url(#mask-2)" fill="#FFFFFF">
                <g transform="translate(-12.000000, 49.024038)">
                    <path d="M25.78952,62.8639436 L11.3443197,62.8259887 L1.98380635,62.8049027 C1.21669633,61.8020508 0.762081382,60.5520705 0.763768265,59.1970818 C0.774733004,55.9300113 3.42609126,53.2921481 6.69274006,53.3010042 C7.88789661,53.3052214 9.00039591,53.6624189 9.92733808,54.2777094 C10.8142168,50.2633498 14.3967344,47.2691326 18.6767781,47.2784104 C23.4405355,47.2906403 27.3245835,51.0296164 27.5721336,55.7309591 C28.3059276,55.3265289 29.1451519,55.0895219 30.0425736,55.0928956 C32.8293042,55.10133 35.0787626,57.3693441 35.0762323,60.152701 C35.0724368,61.1639873 34.7730151,62.0989422 34.2564072,62.8900903 L25.78952,62.8639436 Z" id="Fill-2" fill-opacity="0.4"></path>
                    <path d="M378.690997,25.3416522 L392.45807,25.3846677 C393.297294,24.0979977 393.784382,22.5772728 393.790286,20.9338271 C393.794503,16.4074984 390.137341,12.7203941 385.605951,12.706899 C384.146798,12.7009949 382.782109,13.0856042 381.58864,13.7439103 C381.186318,6.09980028 374.870628,0.0202741853 367.125305,3.15900954e-05 C360.166913,-0.0143069148 354.342107,4.85403723 352.898978,11.381009 C351.393014,10.3802657 349.58341,9.79955627 347.640121,9.79323046 C342.328126,9.77804852 338.016875,14.0673701 338.000006,19.3793645 C337.997476,21.5828553 338.736753,23.6155492 339.983359,25.2459216 L355.203682,25.2805027" id="Fill-4" fill-opacity="0.400000006"></path>
                </g>
            </g>
            <g id="Page-1" stroke-width="1" fill-rule="evenodd" transform="translate(124.000000, 19.000000)">
                <polygon id="Fill-1" fill="#1973B8" points="2.94186325 137.471744 109.735556 137.471744 109.735556 4.78752991 2.94186325 4.78752991"></polygon>
                <g id="Group-8" transform="translate(0.000000, 0.026077)">
                    <path d="M103.410646,62.5225137 C103.410646,65.4460265 101.039578,67.8170949 98.1150991,67.8170949 L14.562706,67.8170949 C11.6382274,67.8170949 9.26715897,65.4460265 9.26715897,62.5225137 L9.26715897,16.0389496 C9.26715897,13.1144709 11.6382274,10.7434026 14.562706,10.7434026 L98.1150991,10.7434026 C101.039578,10.7434026 103.410646,13.1144709 103.410646,16.0389496 L103.410646,62.5225137 Z" id="Fill-2" fill="#004481"></path>
                    <path d="M103.410646,126.454726 C103.410646,129.378239 101.040544,131.749308 98.116065,131.749308 L14.5636718,131.749308 C11.6382274,131.749308 9.26715897,129.378239 9.26715897,126.454726 L9.26715897,79.9711624 C9.26715897,77.0466838 11.6382274,74.6756154 14.5636718,74.6756154 L98.116065,74.6756154 C101.040544,74.6756154 103.410646,77.0466838 103.410646,79.9711624 L103.410646,126.454726 Z" id="Fill-4" fill="#004481"></path>
                    <mask id="mask-4" fill="white">
                        <use xlink:href="#path-3"></use>
                    </mask>
                    <g id="Clip-7"></g>
                    <polygon id="Fill-6" fill="#D0EFF0" mask="url(#mask-4)" points="34.3848376 54.6977949 90.2638205 54.6977949 90.2638205 19.3606667 34.3848376 19.3606667"></polygon>
                </g>
                <g id="Group-11" transform="translate(33.803419, 19.342316)">
                    <mask id="mask-6" fill="white">
                        <use xlink:href="#path-5"></use>
                    </mask>
                    <g id="Clip-10"></g>
                    <polyline id="Fill-9" fill="#FFFFFF" opacity="0.56" mask="url(#mask-6)" points="-2.52598462 30.9252026 35.6100667 -7.21084872 -3.1141641 -2.39531026 -3.1141641 30.9252026"></polyline>
                </g>
                <g id="Group-21" transform="translate(0.000000, 0.026077)">
                    <mask id="mask-8" fill="white">
                        <use xlink:href="#path-7"></use>
                    </mask>
                    <g id="Clip-13"></g>
                    <polygon id="Fill-12" fill="#68CCCC" points="16.4217009 25.4423846 26.2874701 25.4423846 26.2874701 19.3606667 16.4217009 19.3606667"></polygon>
                    <polygon id="Fill-14" fill="#68CCCC" points="16.4217009 35.1961197 26.2874701 35.1961197 26.2874701 29.1115043 16.4217009 29.1115043"></polygon>
                    <polygon id="Fill-15" fill="#68CCCC" points="16.4217009 44.9450256 26.2874701 44.9450256 26.2874701 38.8633077 16.4217009 38.8633077"></polygon>
                    <polygon id="Fill-16" fill="#68CCCC" points="16.4217009 54.6977949 26.2874701 54.6977949 26.2874701 48.6151111 16.4217009 48.6151111"></polygon>
                    <path d="M112.678288,4.35021026 C112.678288,6.2345094 111.151339,7.76049231 109.26704,7.76049231 L3.41115128,7.76049231 C1.52685214,7.76049231 -9.65811966e-05,6.2345094 -9.65811966e-05,4.35021026 C-9.65811966e-05,2.46687692 1.52685214,0.939928205 3.41115128,0.939928205 L109.26704,0.939928205 C111.151339,0.939928205 112.678288,2.46687692 112.678288,4.35021026" id="Fill-17" fill="#004481"></path>
                    <polygon id="Fill-18" fill="#004481" points="1.39849573 140.042735 111.280855 140.042735 111.280855 135.18953 1.39849573 135.18953"></polygon>
                    <polygon id="Fill-19" fill="#68CCCC" points="42.2716581 64.0111197 81.3271624 64.0111197 81.3271624 58.4953675 42.2716581 58.4953675"></polygon>
                    <path d="M75.9815863,61.2529538 C75.9815863,61.5967829 75.7015009,61.8778342 75.356706,61.8778342 L48.2425009,61.8778342 C47.897706,61.8778342 47.6176205,61.5967829 47.6176205,61.2529538 C47.6176205,60.908159 47.897706,60.6290393 48.2425009,60.6290393 L75.356706,60.6290393 C75.7015009,60.6290393 75.9815863,60.908159 75.9815863,61.2529538" id="Fill-20" fill="#004481"></path>
                </g>
                <g transform="translate(48.290598, 88.854701)" fill="#FFFFFF" id="Fill-1">
                    <path d="M8.48840101,23.7500033 L6.52021039,23.7500033 L6.52021039,3.57955947 L10.0744712,3.57955947 C11.7889955,3.57955947 13.2785706,4.98665408 13.2785706,6.66306883 C13.2785706,7.26281407 13.1547481,7.80099606 12.5699108,8.65707664 L10.2583522,12.0710111 C12.6715008,12.6481475 14.2844352,14.4638816 14.2844352,17.8651368 C14.2844352,21.9898747 11.7843638,23.7500033 8.48840101,23.7500033 M16.5615644,10.6295449 L18.1054855,9.10192079 C21.1933277,6.04667248 17.7222843,3.05524831e-05 12.0665926,3.05524831e-05 L7.7196055e-05,3.05524831e-05 L7.7196055e-05,27.4334107 L11.6421686,27.4334107 C21.8799095,27.4334107 24.2811699,15.2124174 16.5615644,10.6295449"></path>
                </g>
            </g>
        </g>
    </g>
</svg>