<?xml version="1.0" encoding="UTF-8"?>
<svg width="360px" height="180px" viewBox="0 0 360 180" version="1.1" xmlns="http://www.w3.org/2000/svg" xmlns:xlink="http://www.w3.org/1999/xlink">
    <!-- Generator: Sketch 48.2 (47327) - http://www.bohemiancoding.com/sketch -->
    <title>Illustration/Branch</title>
    <desc>Created with Sketch.</desc>
    <defs>
        <polygon id="path-1" points="0 180 360 180 360 2.54241073e-14 0 2.54241073e-14"></polygon>
        <polygon id="path-3" points="0.335120419 0.474439252 0.335120419 59.1518832 34.5459948 60.0513131 34.5459948 0.474439252 0.335120419 0.474439252"></polygon>
        <polygon id="path-5" points="0.647633508 51.4572804 55.8926335 51.4572804 55.8926335 0.536584112 0.647633508 0.536584112"></polygon>
    </defs>
    <g id="MX-ATM-&amp;-Branch-Locator-03-00-03" stroke="none" stroke-width="1" fill="none" fill-rule="evenodd" transform="translate(0.000000, -80.000000)">
        <g id="Illustration/Branch" transform="translate(0.000000, 80.000000)">
            <mask id="mask-2" fill="white">
                <use xlink:href="#path-1"></use>
            </mask>
            <use id="Mask" fill="#5AC4C4" fill-rule="evenodd" opacity="0.3" xlink:href="#path-1"></use>
            <g id="Page-1" stroke-width="1" fill-rule="evenodd" mask="url(#mask-2)">
                <g transform="translate(114.000000, 15.000000)">
                    <polygon id="Fill-1" fill="#5ABCFD" points="3.64642932 136.484145 123.10755 136.484145 123.10755 59.9744673 3.64642932 59.9744673"></polygon>
                    <polygon id="Fill-2" fill="#2DCCCD" points="0 64.6253084 126.751319 64.6253084 126.751319 55.3222897 0 55.3222897"></polygon>
                    <polygon id="Fill-3" fill="#1973B8" points="0 142.517542 126.751319 142.517542 126.751319 136.565 0 136.565"></polygon>
                    <polygon id="Fill-4" fill="#FFFFFF" points="110.348904 136.484412 76.1366995 135.58565 76.1366995 74.9656785 110.348904 74.9656785"></polygon>
                    <g id="Group-7" stroke-width="1" fill="none" transform="translate(75.801047, 76.433500)">
                        <mask id="mask-4" fill="white">
                            <use xlink:href="#path-3"></use>
                        </mask>
                        <g id="Clip-6"></g>
                        <path d="M-5.13186387,47.6522107 C-2.18360209,45.9569257 41.8089319,0.474238785 41.8089319,0.474238785 L39.8766702,69.2084584 L9.55891099,72.1680238 L-5.13186387,47.6522107 Z" id="Fill-5" fill-opacity="0.3" fill="#2C84C8" mask="url(#mask-4)"></path>
                    </g>
                    <polygon id="Fill-8" fill="#FFFFFF" points="9.95653403 125.886107 65.201534 125.886107 65.201534 74.9654112 9.95653403 74.9654112"></polygon>
                    <g id="Group-11" stroke-width="1" fill="none" transform="translate(9.308901, 74.428827)">
                        <mask id="mask-6" fill="white">
                            <use xlink:href="#path-5"></use>
                        </mask>
                        <g id="Clip-10"></g>
                        <path d="M0.595636649,55.8542631 C0.595636649,53.4566743 63.9021445,-7.76403131 63.9021445,-7.76403131 L68.4601812,20.4858192 L65.5125843,69.096464 L31.0224429,69.096464 L17.1395476,70.3694313 L0.595636649,55.8542631 Z" id="Fill-9" fill="#2C84C8" opacity="0.296931612" mask="url(#mask-6)"></path>
                    </g>
                    <polygon id="Fill-12" fill="#1973B8" points="76.1368325 136.484145 110.349037 136.484145 110.349037 124.085243 76.1368325 124.085243"></polygon>
                    <polygon id="Fill-13" fill="#1973B8" points="76.1368325 78.4288178 110.349037 78.4288178 110.349037 74.9654112 76.1368325 74.9654112"></polygon>
                    <polygon id="Fill-14" fill="#1973B8" points="9.95653403 78.4288178 65.201534 78.4288178 65.201534 74.9654112 9.95653403 74.9654112"></polygon>
                    <polygon id="Fill-15" fill="#1973B8" points="9.95653403 125.813939 65.201534 125.813939 65.201534 122.353206 9.95653403 122.353206"></polygon>
                    <polygon id="Fill-16" fill="#004480" points="3.64177487 69.5494533 123.109545 69.5494533 123.109545 64.6253084 3.64177487 64.6253084"></polygon>
                    <polygon id="Fill-17" fill="#1973B8" points="3.64709424 69.5501215 123.108215 69.5501215 123.108215 64.6259766 3.64709424 64.6259766"></polygon>
                    <polygon id="Fill-18" fill="#FFFFFF" points="56.6421995 8.18594813 57.9082099 31.732836 69.938634 36.1892238 80.1870686 29.8250556 80.1870686 17.7322005 76.2726759 10.7318827 69.2371419 4.36370514"></polygon>
                    <g id="Group-23" stroke-width="1" fill="none" transform="translate(43.219895, 0.255930)">
                        <path d="M40.9087613,102.1451 C40.9087613,103.634572 39.7072482,104.838713 38.2258031,104.838713 C36.7443581,104.838713 35.5455047,103.634572 35.5455047,102.1451 C35.5455047,100.654292 36.7443581,99.4461425 38.2258031,99.4461425 C39.7072482,99.4461425 40.9087613,100.654292 40.9087613,102.1451" id="Fill-19" fill="#004282"></path>
                        <path d="M19.5984937,0.41249486 C7.13986021,0.41249486 0.500619372,8.45390607 0.500619372,19.9560509 C0.500619372,35.254378 19.3883785,55.4066864 19.3883785,55.4066864 C19.6955723,55.7027098 20.1909387,55.7040463 20.5027869,55.4093593 C20.5027869,55.4093593 39.8160958,35.3412472 39.8160958,20.1257799 C39.8160958,8.70916776 32.7459859,0.41249486 20.4582372,0.41249486 L19.5984937,0.41249486 Z M12.5948759,8.76997617 L22.3605775,8.76997617 C26.9392267,8.76997617 28.5297188,12.5167098 26.2157921,15.9741023 L25.1180068,17.6092472 C32.795855,21.6165883 30.2984099,31.3125229 22.0188079,31.3125229 L12.5948759,31.3125229 L12.5948759,8.76997617 Z M17.8916403,11.5537986 L17.8916403,28.0215182 L19.4847921,28.0215182 C22.1624309,28.0215182 24.1891115,26.5821631 24.1891115,23.2176537 C24.1891115,20.4405136 22.881211,18.9577238 20.9243471,18.4886304 L22.7947712,15.7014668 C23.2728497,15.0004995 23.3692634,14.5614762 23.3692634,14.0716678 C23.3692634,12.7031444 22.1624309,11.5537986 20.7700853,11.5537986 L17.8916403,11.5537986 Z" id="Fill-21" fill="#004481"></path>
                    </g>
                </g>
            </g>
            <g id="clouds" stroke-width="1" fill-rule="evenodd" mask="url(#mask-2)" fill="#FFFFFF">
                <g transform="translate(-12.000000, 49.024038)">
                    <path d="M25.78952,62.8639436 L11.3443197,62.8259887 L1.98380635,62.8049027 C1.21669633,61.8020508 0.762081382,60.5520705 0.763768265,59.1970818 C0.774733004,55.9300113 3.42609126,53.2921481 6.69274006,53.3010042 C7.88789661,53.3052214 9.00039591,53.6624189 9.92733808,54.2777094 C10.8142168,50.2633498 14.3967344,47.2691326 18.6767781,47.2784104 C23.4405355,47.2906403 27.3245835,51.0296164 27.5721336,55.7309591 C28.3059276,55.3265289 29.1451519,55.0895219 30.0425736,55.0928956 C32.8293042,55.10133 35.0787626,57.3693441 35.0762323,60.152701 C35.0724368,61.1639873 34.7730151,62.0989422 34.2564072,62.8900903 L25.78952,62.8639436 Z" id="Fill-2" fill-opacity="0.4"></path>
                    <path d="M378.690997,25.3416522 L392.45807,25.3846677 C393.297294,24.0979977 393.784382,22.5772728 393.790286,20.9338271 C393.794503,16.4074984 390.137341,12.7203941 385.605951,12.706899 C384.146798,12.7009949 382.782109,13.0856042 381.58864,13.7439103 C381.186318,6.09980028 374.870628,0.0202741853 367.125305,3.15900954e-05 C360.166913,-0.0143069148 354.342107,4.85403723 352.898978,11.381009 C351.393014,10.3802657 349.58341,9.79955627 347.640121,9.79323046 C342.328126,9.77804852 338.016875,14.0673701 338.000006,19.3793645 C337.997476,21.5828553 338.736753,23.6155492 339.983359,25.2459216 L355.203682,25.2805027" id="Fill-4" fill-opacity="0.400000006"></path>
                </g>
            </g>
        </g>
    </g>
</svg>