<?xml version="1.0" encoding="UTF-8" standalone="no"?>
<svg width="275px" height="195px" viewBox="0 0 275 195" version="1.1" xmlns="http://www.w3.org/2000/svg" xmlns:xlink="http://www.w3.org/1999/xlink">
    <!-- Generator: Sketch 39.1 (31720) - http://www.bohemiancoding.com/sketch -->
    <title>Group</title>
    <desc>Created with Sketch.</desc>
    <defs>
        <circle id="path-1" cx="97.5" cy="97.5" r="97.5"></circle>
        <circle id="path-3" cx="97.5" cy="97.5" r="97.5"></circle>
        <circle id="path-5" cx="97.5" cy="97.5" r="97.5"></circle>
        <path d="M19.9581228,0.536123315 L1.47637346,0.536123315 C0.37108871,0.536123315 0.11055614,1.17040928 0.89104251,1.94943192 L19.9581228,20.9807535 L19.9581228,0.536123315 L19.9581228,0.536123315 Z" id="path-7"></path>
    </defs>
    <g id="Page-1" stroke="none" stroke-width="1" fill="none" fill-rule="evenodd">
        <g id="MX-Welcome-02" transform="translate(-40.000000, -76.000000)">
            <g id="Group" transform="translate(40.000000, 76.000000)">
                <g id="bg" transform="translate(38.000000, 0.000000)">
                    <g id="mask-2" fill="#FFFFFF">
                        <circle id="path-1" cx="97.5" cy="97.5" r="97.5"></circle>
                    </g>
                    <g id="path-1-link" fill="#28999A">
                        <circle id="path-1" cx="97.5" cy="97.5" r="97.5"></circle>
                    </g>
                    <g id="Rectangle-3-Clipped">
                        <mask id="mask-2" fill="white">
                            <use xlink:href="#path-1"></use>
                        </mask>
                        <g id="path-1"></g>
                        <polygon id="Rectangle-3" fill-opacity="0.1" fill="#072146" style="mix-blend-mode: multiply;" mask="url(#mask-2)" transform="translate(96.942857, 96.942857) scale(-1, 1) translate(-96.942857, -96.942857) " points="-1.114286 -1.11428571 195 195 -1.114286 195"></polygon>
                    </g>
                    <g id="GPS-Location-Copy-3-Clipped">
                        <mask id="mask-4" fill="white">
                            <use xlink:href="#path-3"></use>
                        </mask>
                        <g id="path-1"></g>
                        <g id="GPS-Location-Copy-3" mask="url(#mask-4)">
                            <g transform="translate(86.000000, -10.000000)" id="Group">
                                <g>
                                    <path d="M0,10.7371326 C0,12.2897443 0.39468842,13.9823581 1.13796483,15.79403 C2.12967104,18.211228 3.71070951,20.773936 5.71945414,23.393816 C6.96086645,25.0129125 8.29005428,26.5556465 9.61928883,27.9712019 C10.0846365,28.4667693 10.5169168,28.9112076 10.9051483,29.2981074 C11.0412972,29.4337892 11.1623038,29.552669 11.2667948,29.6539439 C11.3035251,29.6895437 11.3356103,29.72044 11.3628788,29.7465324 C11.705862,30.0784855 12.2054231,30.0797925 12.51893,29.7774085 C12.5760985,29.7235066 12.6084288,29.6927429 12.64544,29.6572958 C12.7507324,29.5564531 12.872668,29.4380821 13.0098631,29.3029827 C13.4010821,28.9177397 13.8366908,28.4752215 14.3056233,27.9818164 C15.6451111,26.5724233 16.9845571,25.0365652 18.2355616,23.4248836 C20.2544448,20.8239362 21.844765,18.2798964 22.8448553,15.8800588 C23.5992589,14.0697764 24,12.3789304 24,10.8285431 C24,4.62387708 18.8864396,0 12.2231166,0 L11.7768834,0 C5.01770223,0 0,4.49165766 0,10.7371326 L0,10.7371326 L0,10.7371326 Z" id="Location" fill="#FFFFFF"></path>
                                    <path d="M12.0974096,15.4926917 C9.6798984,15.4926917 7.72011835,13.4845703 7.72011835,11.007427 C7.72011835,8.53028372 9.6798984,6.52216232 12.0974096,6.52216232 C14.5149208,6.52216232 16.4747009,8.53028372 16.4747009,11.007427 C16.4747009,13.4845703 14.5149208,15.4926917 12.0974096,15.4926917 L12.0974096,15.4926917 L12.0974096,15.4926917 Z" id="Path" fill="#28999A"></path>
                                </g>
                            </g>
                        </g>
                    </g>
                    <g id="GPS-Location-Copy-4-Clipped">
                        <mask id="mask-6" fill="white">
                            <use xlink:href="#path-5"></use>
                        </mask>
                        <g id="path-1"></g>
                        <g id="GPS-Location-Copy-4" mask="url(#mask-6)">
                            <g transform="translate(86.000000, 184.000000)" id="Group">
                                <g>
                                    <path d="M0,10.7371326 C0,12.2897443 0.39468842,13.9823581 1.13796483,15.79403 C2.12967104,18.211228 3.71070951,20.773936 5.71945414,23.393816 C6.96086645,25.0129125 8.29005428,26.5556465 9.61928883,27.9712019 C10.0846365,28.4667693 10.5169168,28.9112076 10.9051483,29.2981074 C11.0412972,29.4337892 11.1623038,29.552669 11.2667948,29.6539439 C11.3035251,29.6895437 11.3356103,29.72044 11.3628788,29.7465324 C11.705862,30.0784855 12.2054231,30.0797925 12.51893,29.7774085 C12.5760985,29.7235066 12.6084288,29.6927429 12.64544,29.6572958 C12.7507324,29.5564531 12.872668,29.4380821 13.0098631,29.3029827 C13.4010821,28.9177397 13.8366908,28.4752215 14.3056233,27.9818164 C15.6451111,26.5724233 16.9845571,25.0365652 18.2355616,23.4248836 C20.2544448,20.8239362 21.844765,18.2798964 22.8448553,15.8800588 C23.5992589,14.0697764 24,12.3789304 24,10.8285431 C24,4.62387708 18.8864396,0 12.2231166,0 L11.7768834,0 C5.01770223,0 0,4.49165766 0,10.7371326 L0,10.7371326 L0,10.7371326 Z" id="Location" fill="#FFFFFF"></path>
                                    <path d="M12.0974096,15.4926917 C9.6798984,15.4926917 7.72011835,13.4845703 7.72011835,11.007427 C7.72011835,8.53028372 9.6798984,6.52216232 12.0974096,6.52216232 C14.5149208,6.52216232 16.4747009,8.53028372 16.4747009,11.007427 C16.4747009,13.4845703 14.5149208,15.4926917 12.0974096,15.4926917 L12.0974096,15.4926917 L12.0974096,15.4926917 Z" id="Path" fill="#28999A"></path>
                                </g>
                            </g>
                        </g>
                    </g>
                </g>
                <g id="GPS-Location" transform="translate(251.000000, 139.000000)">
                    <path d="M0,10.7371326 C0,12.2897443 0.39468842,13.9823581 1.13796483,15.79403 C2.12967104,18.211228 3.71070951,20.773936 5.71945414,23.393816 C6.96086645,25.0129125 8.29005428,26.5556465 9.61928883,27.9712019 C10.0846365,28.4667693 10.5169168,28.9112076 10.9051483,29.2981074 C11.0412972,29.4337892 11.1623038,29.552669 11.2667948,29.6539439 C11.3035251,29.6895437 11.3356103,29.72044 11.3628788,29.7465324 C11.705862,30.0784855 12.2054231,30.0797925 12.51893,29.7774085 C12.5760985,29.7235066 12.6084288,29.6927429 12.64544,29.6572958 C12.7507324,29.5564531 12.872668,29.4380821 13.0098631,29.3029827 C13.4010821,28.9177397 13.8366908,28.4752215 14.3056233,27.9818164 C15.6451111,26.5724233 16.9845571,25.0365652 18.2355616,23.4248836 C20.2544448,20.8239362 21.844765,18.2798964 22.8448553,15.8800588 C23.5992589,14.0697764 24,12.3789304 24,10.8285431 C24,4.62387708 18.8864396,0 12.2231166,0 L11.7768834,0 C5.01770223,0 0,4.49165766 0,10.7371326 L0,10.7371326 L0,10.7371326 Z" id="Location" fill="#FFFFFF"></path>
                    <path d="M12.0974096,15.4926917 C9.6798984,15.4926917 7.72011835,13.4845703 7.72011835,11.007427 C7.72011835,8.53028372 9.6798984,6.52216232 12.0974096,6.52216232 C14.5149208,6.52216232 16.4747009,8.53028372 16.4747009,11.007427 C16.4747009,13.4845703 14.5149208,15.4926917 12.0974096,15.4926917 L12.0974096,15.4926917 L12.0974096,15.4926917 Z" id="Path" fill="#2DCCCD"></path>
                </g>
                <g id="GPS-Location-Copy" transform="translate(0.000000, 23.000000)">
                    <path d="M0,10.7371326 C0,12.2897443 0.39468842,13.9823581 1.13796483,15.79403 C2.12967104,18.211228 3.71070951,20.773936 5.71945414,23.393816 C6.96086645,25.0129125 8.29005428,26.5556465 9.61928883,27.9712019 C10.0846365,28.4667693 10.5169168,28.9112076 10.9051483,29.2981074 C11.0412972,29.4337892 11.1623038,29.552669 11.2667948,29.6539439 C11.3035251,29.6895437 11.3356103,29.72044 11.3628788,29.7465324 C11.705862,30.0784855 12.2054231,30.0797925 12.51893,29.7774085 C12.5760985,29.7235066 12.6084288,29.6927429 12.64544,29.6572958 C12.7507324,29.5564531 12.872668,29.4380821 13.0098631,29.3029827 C13.4010821,28.9177397 13.8366908,28.4752215 14.3056233,27.9818164 C15.6451111,26.5724233 16.9845571,25.0365652 18.2355616,23.4248836 C20.2544448,20.8239362 21.844765,18.2798964 22.8448553,15.8800588 C23.5992589,14.0697764 24,12.3789304 24,10.8285431 C24,4.62387708 18.8864396,0 12.2231166,0 L11.7768834,0 C5.01770223,0 0,4.49165766 0,10.7371326 L0,10.7371326 L0,10.7371326 Z" id="Location" fill="#FFFFFF"></path>
                    <path d="M12.0974096,15.4926917 C9.6798984,15.4926917 7.72011835,13.4845703 7.72011835,11.007427 C7.72011835,8.53028372 9.6798984,6.52216232 12.0974096,6.52216232 C14.5149208,6.52216232 16.4747009,8.53028372 16.4747009,11.007427 C16.4747009,13.4845703 14.5149208,15.4926917 12.0974096,15.4926917 L12.0974096,15.4926917 L12.0974096,15.4926917 Z" id="Path" fill="#2DCCCD"></path>
                </g>
                <g id="GPS-Location-Copy-2" transform="translate(42.000000, 155.000000)">
                    <path d="M0,14.3161768 C0,16.3863257 0.526251226,18.6431441 1.51728644,21.0587067 C2.83956138,24.2816374 4.94761268,27.6985813 7.62593886,31.1917547 C9.28115526,33.35055 11.0534057,35.4075287 12.8257184,37.2949358 C13.446182,37.9556925 14.0225557,38.5482768 14.5401978,39.0641432 C14.7217296,39.2450523 14.8830717,39.4035587 15.022393,39.5385919 C15.0713667,39.5860583 15.1141471,39.6272533 15.1505051,39.6620432 C15.607816,40.1046473 16.2738975,40.10639 16.6919067,39.7032114 C16.7681314,39.6313421 16.8112384,39.5903238 16.8605867,39.543061 C17.0009765,39.4086042 17.1635574,39.2507761 17.3464841,39.0706437 C17.8681095,38.5569863 18.4489211,37.966962 19.0741644,37.3090885 C20.8601482,35.4298977 22.6460761,33.382087 24.3140821,31.2331782 C27.0059265,27.7652483 29.1263534,24.3731952 30.4598071,21.1734118 C31.4656785,18.7597018 32,16.5052405 32,14.4380574 C32,6.16516945 25.1819195,0 16.2974888,0 L15.7025112,0 C6.69026964,0 0,5.98887688 0,14.3161768 L0,14.3161768 L0,14.3161768 Z" id="Location" fill="#DA3851"></path>
                    <path d="M16.1298795,20.6569222 C12.9065312,20.6569222 10.2934911,17.979427 10.2934911,14.6765693 C10.2934911,11.3737116 12.9065312,8.69621643 16.1298795,8.69621643 C19.3532278,8.69621643 21.9662678,11.3737116 21.9662678,14.6765693 C21.9662678,17.979427 19.3532278,20.6569222 16.1298795,20.6569222 L16.1298795,20.6569222 L16.1298795,20.6569222 Z" id="Path" fill="#FFFFFF"></path>
                </g>
                <g id="Bubble" transform="translate(85.000000, 61.000000)">
                    <g id="CUT" transform="translate(0.000000, 64.000000)">
                        <g id="mask-4" transform="translate(1.000000, 0.000000)" fill="#FFFFFF">
                            <path d="M19.9581228,0.536123315 L1.47637346,0.536123315 C0.37108871,0.536123315 0.11055614,1.17040928 0.89104251,1.94943192 L19.9581228,20.9807535 L19.9581228,0.536123315 L19.9581228,0.536123315 Z" id="path-3"></path>
                        </g>
                        <g id="Fill-1" transform="translate(10.941246, 10.958122) rotate(-90.000000) translate(-10.941246, -10.958122) translate(0.941246, 0.458122)" fill="#E9E9E9">
                            <path d="M19.9581228,0.536123315 L1.47637346,0.536123315 C0.37108871,0.536123315 0.11055614,1.17040928 0.89104251,1.94943192 L19.9581228,20.9807535 L19.9581228,0.536123315 L19.9581228,0.536123315 Z" id="path-3"></path>
                        </g>
                        <g id="shadow-Clipped" transform="translate(1.000000, 0.000000)">
                            <mask id="mask-8" fill="white">
                                <use xlink:href="#path-7"></use>
                            </mask>
                            <g id="path-3"></g>
                            <rect id="shadow" fill="#D3D3D3" mask="url(#mask-8)" x="-19" y="-7" width="57" height="19"></rect>
                        </g>
                    </g>
                    <rect id="Bubble-Copy" fill="#FFFFFF" transform="translate(50.895470, 36.086529) rotate(-90.000000) translate(-50.895470, -36.086529) " x="14.808941" y="-13.8089407" width="72.1730586" height="99.7909397"></rect>
                </g>
                <path d="M135.155358,122 C132.308021,122 130,119.684912 130,116.828856 C130,113.9728 132.308021,111.657712 135.155358,111.657712 C138.002695,111.657712 140.310716,113.9728 140.310716,116.828856 C140.310716,119.684912 138.002695,122 135.155358,122 L135.155358,122 L135.155358,122 Z M139.073957,78.0932235 L131.64981,70 L131.64981,106.632485 L139.073957,106.632485 L139.073957,78.0932235 L139.073957,78.0932235 Z" id="Alert" fill="#5BBEFF"></path>
            </g>
        </g>
    </g>
</svg>