<?xml version="1.0" encoding="UTF-8"?>
<svg width="300px" height="105px" viewBox="0 0 300 105" version="1.1" xmlns="http://www.w3.org/2000/svg" xmlns:xlink="http://www.w3.org/1999/xlink">
    <!-- Generator: Sketch 47 (45396) - http://www.bohemiancoding.com/sketch -->
    <title>Group 5</title>
    <desc>Created with Sketch.</desc>
    <defs>
        <polygon id="path-1" points="0 51.9257724 0 0.0633800467 299.7 0.0633800467 299.7 51.9257724 299.7 103.788165 0 103.788165 0 51.9257724"></polygon>
        <rect id="path-3" x="0" y="0" width="160" height="65.1621094"></rect>
        <path d="M30.7553325,0.7045 C13.9510883,0.855341469 0.36290893,14.4675296 0.2507,31.2791908 L0.2507,31.6988515 C0.363538529,48.6082257 14.1039971,62.276 31.038,62.276 C48.04,62.276 61.823,48.495 61.823,31.489 C61.823,14.5809263 48.1917622,0.855968475 31.3186638,0.7045 L30.7553325,0.7045 L30.7553325,0.7045 Z" id="path-5"></path>
        <path d="M0.9687,42.734289 C1.0999457,65.724276 19.6703755,84.3463691 42.640097,84.5587 L43.4339015,84.5587 C66.4842605,84.3456144 85.105,65.5916749 85.105,42.489 C85.105,19.258 66.271,0.423 43.038,0.423 C19.8838227,0.423 1.10069781,19.1255833 0.9687,42.2437488 L0.9687,42.734289 L0.9687,42.734289 Z" id="path-7"></path>
        <path d="M0.135,42.593 C0.135,65.835 18.976,84.676 42.217,84.676 C65.458,84.676 84.298,65.835 84.298,42.593 C84.298,19.352 65.458,0.512 42.217,0.512 C18.976,0.512 0.135,19.352 0.135,42.593 Z" id="path-9"></path>
        <path d="M0.813,37.593 C0.813,58.252 17.559,74.997 38.217,74.997 C58.874,74.997 75.621,58.252 75.621,37.593 C75.621,16.936 58.874,0.189 38.217,0.189 C17.559,0.189 0.813,16.936 0.813,37.593 Z" id="path-11"></path>
        <path d="M0.813,37.593 C0.813,47.572 4.72,56.636 11.088,63.343 L63.967,10.464 C57.26,4.097 48.194,0.189 38.217,0.189 C17.56,0.189 0.813,16.936 0.813,37.593 Z" id="path-13"></path>
        <path d="M0.813,37.593 C0.813,43.964 2.406,49.964 5.215,55.215 C-0.906,41.149 1.786,24.171 13.289,12.666 C24.794,1.161 41.777,-1.529 55.844,4.595 C50.592,1.783 44.59,0.189 38.217,0.189 C17.56,0.189 0.813,16.936 0.813,37.593 Z" id="path-15"></path>
        <polygon id="path-17" points="0.538 0.836 0.754 3.12 2.867 4.172 3.423 2.633 1.981 0.22"></polygon>
        <path d="M0.181,26.905 C0.206,27.339 0.067,29.273 0.623,30.06 C1.032,30.639 1.47,31.229 2.172,31.538 L15.319,37.039 C16.913,37.74 18.772,37.019 19.473,35.426 C20.174,33.834 19.671,32.156 18.077,31.454 L8.112,27.339 L8.206,3.804 L2.172,0.094 L0.181,26.905 Z" id="path-19"></path>
        <polygon id="path-21" points="0.205 29.13 6.369 29.34 6.369 4.685 0.067 0.644"></polygon>
        <path d="M0.45,2.474 C-0.253,4.067 0.469,5.927 2.062,6.628 L14.188,11.97 C15.78,12.672 17.64,11.951 18.341,10.357 C19.042,8.765 18.32,6.905 16.728,6.203 L4.603,0.862 C4.19,0.68 3.758,0.593 3.334,0.593 C2.123,0.593 0.969,1.295 0.45,2.474 Z" id="path-23"></path>
        <polygon id="path-25" points="0.364 15.756 3.975 15.756 3.975 0.316 0.364 0.316"></polygon>
        <path d="M0.595,13.311 C0.595,20.542 6.458,26.405 13.69,26.405 C20.922,26.405 26.784,20.542 26.784,13.311 C26.784,6.078 20.922,0.216 13.69,0.216 C6.458,0.216 0.595,6.078 0.595,13.311 Z" id="path-27"></path>
        <polygon id="path-29" points="6.32 4.984 1.926 0.572 0.875 1.614 5.281 6.027 4.227 7.084 0.875 10.42 1.926 11.461 3.929 9.451 6.32 7.068 8.711 9.462 10.714 11.461 11.764 10.42 8.412 7.084 7.359 6.027 11.764 1.614 10.714 0.572"></polygon>
    </defs>
    <g id="MX-Historical" stroke="none" stroke-width="1" fill="none" fill-rule="evenodd">
        <g id="MX-History_of_transactions_05_05" transform="translate(-30.000000, -110.000000)">
            <g id="Group-5" transform="translate(30.000000, 110.000000)">
                <g id="Group-4">
                    <g id="Group-10" transform="translate(0.000000, 0.420437)">
                        <g id="Group-3">
                            <mask id="mask-2" fill="white">
                                <use xlink:href="#path-1"></use>
                            </mask>
                            <g id="Clip-2"></g>
                            <path d="M282.303398,67.5076844 L229.644175,67.5076844 C223.098544,64.5965566 218.45,57.927621 218.45,50.457968 L218.45,50.4555489 C218.45,43.5205138 222.457282,37.9348448 228.243689,34.8926026 L240.334466,34.8926026 C249.770388,34.8926026 257.420388,27.7771038 257.420388,19.0001768 L257.420388,15.9555155 C257.420388,7.17810477 249.770388,0.0630897564 240.334466,0.0630897564 L53.6737864,0.0630897564 C44.2383495,0.0630897564 36.5883495,7.17810477 36.5883495,15.9555155 L36.5883495,19.0001768 C36.5883495,27.7771038 44.2383495,34.8926026 53.6737864,34.8926026 L54.1771845,34.8926026 C60.4936893,37.6595529 64.8883495,43.8393493 64.8883495,51.1812746 L64.8883495,51.1832099 C64.8883495,58.1216316 60.9640777,64.3391658 55.2014563,67.5076844 L17.3966019,67.5076844 C7.78883495,67.5076844 0,75.629039 0,85.646957 L0,85.6488922 C0,95.6668101 7.78883495,103.788165 17.3966019,103.788165 L282.303398,103.788165 C291.911165,103.788165 299.7,95.6668101 299.7,85.6488922 L299.7,85.646957 C299.7,75.629039 291.911165,67.5076844 282.303398,67.5076844" id="Fill-1" fill="#FCDFDF" mask="url(#mask-2)"></path>
                        </g>
                    </g>
                    <g id="Page-1" transform="translate(0.000000, 19.000000)">
                        <mask id="mask-4" fill="white">
                            <use xlink:href="#path-3"></use>
                        </mask>
                        <use id="Mask" fill-opacity="0" fill="#D8D8D8" xlink:href="#path-3"></use>
                        <g mask="url(#mask-4)" fill="#F59799">
                            <g transform="translate(24.000000, 21.000000)">
                                <path d="M188.454342,30.2637189 C188.454342,31.790114 187.216423,33.0280326 185.690028,33.0280326 L45.4651275,33.0280326 C43.9387324,33.0280326 42.7008138,31.790114 42.7008138,30.2637189 L42.7008138,30.0481206 C42.7008138,28.5217255 43.9387324,27.2848191 45.4651275,27.2848191 L185.690028,27.2848191 C187.216423,27.2848191 188.454342,28.5217255 188.454342,30.0481206 L188.454342,30.2637189 Z" id="Fill-1"></path>
                                <path d="M222.534975,5.74422571 L19.8716068,5.74422571 C18.2854919,5.74422571 17,4.45873379 17,2.87261896 C17,1.28650412 18.2854919,0 19.8716068,0 L218.665341,0 C220.251456,0 222.763732,1.28650412 222.763732,2.87261896 C223.218209,4.45873379 224.122102,5.74422571 222.534975,5.74422571 Z" id="Fill-3"></path>
                                <path d="M216.79467,19.7442257 L2.87160676,19.7442257 C1.28549192,19.7442257 0,18.4577216 0,16.872619 C0,15.2854919 1.28549192,14 2.87160676,14 L216.79467,14 C218.37876,14 219.665264,15.2854919 219.665264,16.872619 C219.665264,18.4577216 218.37876,19.7442257 216.79467,19.7442257 Z" id="Fill-5"></path>
                                <path d="M38.2367153,30.1995455 C38.2367153,31.7623798 36.9714674,33.0276277 35.4086331,33.0276277 L33.1686381,33.0276277 C31.6068161,33.0276277 30.3405559,31.7623798 30.3405559,30.1995455 L30.3405559,30.1135086 C30.3405559,28.5506744 31.6068161,27.2844142 33.1686381,27.2844142 L35.4086331,27.2844142 C36.9714674,27.2844142 38.2367153,28.5506744 38.2367153,30.1135086 L38.2367153,30.1995455 Z" id="Fill-7"></path>
                            </g>
                        </g>
                    </g>
                    <g id="Group-11" transform="translate(103.000000, 9.000000)">
                        <g id="Page-1">
                            <path d="M43.0367,62.5224 C53.5977,62.5224 62.1587,53.9604 62.1587,43.4004 C62.1587,32.8394 53.5977,24.2784 43.0367,24.2784 C32.4757,24.2784 23.9147,32.8394 23.9147,43.4004 C23.9147,53.9604 32.4757,62.5224 43.0367,62.5224 Z" id="Stroke-11" stroke="#BBBBBB" stroke-width="2"></path>
                            <g id="Group-15" transform="translate(12.000000, 11.910000)">
                                <mask id="mask-6" fill="white">
                                    <use xlink:href="#path-5"></use>
                                </mask>
                                <g id="Clip-14"></g>
                                <path d="M31.0367,62.2765 C48.0397,62.2765 61.8237,48.4935 61.8237,31.4915 C61.8237,14.4875 48.0397,0.7045 31.0367,0.7045 C14.0337,0.7045 0.2507,14.4875 0.2507,31.4915 C0.2507,48.4935 14.0337,62.2765 31.0367,62.2765 Z" id="Stroke-13" stroke="#BBBBBB" stroke-width="2" mask="url(#mask-6)"></path>
                            </g>
                            <g id="Group-18" transform="translate(0.000000, 0.910000)">
                                <mask id="mask-8" fill="white">
                                    <use xlink:href="#path-7"></use>
                                </mask>
                                <g id="Clip-17"></g>
                                <path d="M43.0367,84.5587 C66.2707,84.5587 85.1057,65.7247 85.1057,42.4907 C85.1057,19.2557 66.2707,0.4207 43.0367,0.4207 C19.8037,0.4207 0.9687,19.2557 0.9687,42.4907 C0.9687,65.7247 19.8037,84.5587 43.0367,84.5587 Z" id="Stroke-16" stroke="#BBBBBB" stroke-width="2" mask="url(#mask-8)"></path>
                            </g>
                            <g id="Group-21" transform="translate(1.000000, 0.910000)">
                                <mask id="mask-10" fill="white">
                                    <use xlink:href="#path-9"></use>
                                </mask>
                                <g id="Clip-20"></g>
                                <polygon id="Fill-19" fill="#004280" mask="url(#mask-10)" points="-14.957 99.769 99.392 99.769 99.392 -14.581 -14.957 -14.581"></polygon>
                            </g>
                            <g id="Group-24" transform="translate(5.000000, 5.910000)">
                                <mask id="mask-12" fill="white">
                                    <use xlink:href="#path-11"></use>
                                </mask>
                                <g id="Clip-23"></g>
                                <polygon id="Fill-22" fill="#F2F2F2" mask="url(#mask-12)" points="-14.28 90.09 90.713 90.09 90.713 -14.904 -14.28 -14.904"></polygon>
                            </g>
                            <g id="Group-27" transform="translate(5.000000, 5.910000)">
                                <mask id="mask-14" fill="white">
                                    <use xlink:href="#path-13"></use>
                                </mask>
                                <g id="Clip-26"></g>
                                <polygon id="Fill-25" fill="#E9E9E9" mask="url(#mask-14)" points="-16.021 79.189 79.811 79.189 79.811 -16.644 -16.021 -16.644"></polygon>
                            </g>
                            <g id="Group-30" transform="translate(5.000000, 5.910000)">
                                <mask id="mask-16" fill="white">
                                    <use xlink:href="#path-15"></use>
                                </mask>
                                <g id="Clip-29"></g>
                                <polygon id="Fill-28" fill="#BCBCBC" mask="url(#mask-16)" points="-16.601 78.608 79.23 78.608 79.23 -17.224 -16.601 -17.224"></polygon>
                            </g>
                            <g id="Group-33" transform="translate(56.000000, 49.910000)">
                                <mask id="mask-18" fill="white">
                                    <use xlink:href="#path-17"></use>
                                </mask>
                                <g id="Clip-32"></g>
                                <polygon id="Fill-31" fill="#BDBDBD" mask="url(#mask-18)" points="-14.555 19.265 18.516 19.265 18.516 -14.874 -14.555 -14.874"></polygon>
                            </g>
                            <g id="Group-36" transform="translate(40.000000, 19.910000)">
                                <mask id="mask-20" fill="white">
                                    <use xlink:href="#path-19"></use>
                                </mask>
                                <g id="Clip-35"></g>
                                <polygon id="Fill-34" fill="#BDBDBD" mask="url(#mask-20)" points="-14.912 52.4 34.875 52.4 34.875 -14.999 -14.912 -14.999"></polygon>
                            </g>
                            <g id="Group-39" transform="translate(40.000000, 17.910000)">
                                <mask id="mask-22" fill="white">
                                    <use xlink:href="#path-21"></use>
                                </mask>
                                <g id="Clip-38"></g>
                                <polygon id="Fill-37" fill="#0086C7" mask="url(#mask-22)" points="-15.026 44.433 21.462 44.433 21.462 -14.449 -15.026 -14.449"></polygon>
                            </g>
                            <g id="Group-42" transform="translate(40.000000, 42.910000)">
                                <mask id="mask-24" fill="white">
                                    <use xlink:href="#path-23"></use>
                                </mask>
                                <g id="Clip-41"></g>
                                <polygon id="Fill-40" fill="#40BEF9" mask="url(#mask-24)" points="-14.912 27.331 33.702 27.331 33.702 -14.5 -14.912 -14.5"></polygon>
                            </g>
                            <g id="Group-72" transform="translate(19.000000, 66.910000)">
                                <mask id="mask-26" fill="white">
                                    <use xlink:href="#path-25"></use>
                                </mask>
                                <g id="Clip-71"></g>
                            </g>
                        </g>
                    </g>
                </g>
                <g id="Group-2" transform="translate(164.000000, 68.000000)">
                    <g id="Page-1">
                        <g id="Group-3" transform="translate(0.000000, 0.380000)">
                            <mask id="mask-28" fill="white">
                                <use xlink:href="#path-27"></use>
                            </mask>
                            <g id="Clip-2"></g>
                            <polygon id="Fill-1" fill="#DA3851" mask="url(#mask-28)" points="-5 32 32.381 32 32.381 -5.38 -5 -5.38"></polygon>
                        </g>
                        <g id="Group-6" transform="translate(7.000000, 7.380000)">
                            <mask id="mask-30" fill="white">
                                <use xlink:href="#path-29"></use>
                            </mask>
                            <g id="Clip-5"></g>
                            <polygon id="Fill-4" fill="#FFFFFF" mask="url(#mask-30)" points="-4.125 16.462 16.764 16.462 16.764 -4.427 -4.125 -4.427"></polygon>
                        </g>
                    </g>
                </g>
            </g>
        </g>
    </g>
</svg>