<?xml version="1.0" encoding="UTF-8"?>
<svg width="301px" height="105px" viewBox="0 0 301 105" version="1.1" xmlns="http://www.w3.org/2000/svg" xmlns:xlink="http://www.w3.org/1999/xlink">
    <!-- Generator: Sketch 47 (45396) - http://www.bohemiancoding.com/sketch -->
    <title>Group 2</title>
    <desc>Created with Sketch.</desc>
    <defs>
        <path d="M17.472,0.041 C7.823,0.041 0,7.851 0,17.487 L0,17.488 C0,27.124 7.823,34.935 17.472,34.935 L283.528,34.935 C293.177,34.935 301,27.124 301,17.488 L301,17.487 C301,7.851 293.177,0.041 283.528,0.041 L17.472,0.041 Z" id="path-1"></path>
        <path d="M18.998,0.428 C8.505,0.428 0,8.935 0,19.428 C0,29.924 8.506,38.429 18.998,38.429 L209.002,38.429 C219.496,38.429 228,29.922 228,19.428 C228,8.933 219.494,0.428 209.002,0.428 L18.998,0.428 Z" id="path-3"></path>
        <path d="M30.644,0.065 C32.425,0.267 34.127,0.735 35.706,1.429 L36.046,1.429 C44.857,1.429 52,8.566 52,17.374 C52,26.18 44.858,33.318 36.06,33.318 L35.907,33.318 C33.831,34.273 31.538,34.832 29.125,34.896 L210.63,34.467 C208.476,34.467 206.4,34.059 204.477,33.318 L193.102,33.318 C184.304,33.318 177.162,26.18 177.162,17.374 C177.162,8.566 184.305,1.429 193.115,1.429 L202.492,1.429 C203.522,0.883 204.607,0.426 205.734,0.065 L30.644,0.065 Z M26.481,34.902 L28.657,34.902 C28.814,34.902 28.97,34.9 29.125,34.896 L26.481,34.902 Z M0.157,34.902 C0.805,34.902 1.463,34.96 2.131,34.96 L26.481,34.902 L0.157,34.902 Z" id="path-5"></path>
        <path d="M17.969,0.719 C8.492,0.719 0.809,8.389 0.809,17.853 L0.809,21.269 C0.809,30.733 8.492,38.403 17.969,38.403 L205.44,38.403 C214.917,38.403 222.599,30.733 222.599,21.269 L222.599,17.853 C222.599,8.389 214.917,0.719 205.44,0.719 L17.969,0.719 Z" id="path-7"></path>
        <path d="M5.59,0.968 C2.696,0.968 0.35,3.3 0.35,6.177 L0.35,60.186 C0.35,63.064 2.696,65.394 5.59,65.394 L106.146,65.394 C109.04,65.394 111.386,63.064 111.386,60.186 L111.386,6.177 C111.386,3.3 109.04,0.968 106.146,0.968 L5.59,0.968 Z" id="path-9"></path>
        <path d="M5.59,0.954 C2.696,0.954 0.35,3.284 0.35,6.161 L0.35,60.171 C0.35,63.048 2.696,65.379 5.59,65.379 L106.146,65.379 C109.04,65.379 111.386,63.048 111.386,60.171 L111.386,6.161 C111.386,3.284 109.04,0.954 106.146,0.954 L5.59,0.954 Z" id="path-11"></path>
        <path d="M65.771,0.954 L0.938,65.379 L82.145,65.379 C85.041,65.379 87.386,63.048 87.386,60.17 L87.386,6.161 C87.386,3.285 85.041,0.954 82.145,0.954 L65.771,0.954 Z" id="path-13"></path>
        <path d="M0.307277276,20.9166992 C0.307277276,32.2524637 9.49938234,41.4401999 20.8336906,41.4401999 C32.1709114,41.4401999 41.3586476,32.2524637 41.3586476,20.9166992 C41.3586476,9.5809346 32.1709114,0.388829539 20.8336906,0.388829539 C9.49938234,0.388829539 0.307277276,9.5809346 0.307277276,20.9166992 Z" id="path-15"></path>
    </defs>
    <g id="MX-Historical" stroke="none" stroke-width="1" fill="none" fill-rule="evenodd">
        <g id="MX-History_of_transactions_07_05" transform="translate(-30.000000, -111.000000)">
            <g id="Group-2" transform="translate(30.000000, 110.000000)">
                <g id="Page-1" transform="translate(0.000000, -0.000000)">
                    <g id="Group-6" transform="translate(0.000000, 70.572000)">
                        <mask id="mask-2" fill="white">
                            <use xlink:href="#path-1"></use>
                        </mask>
                        <g id="Clip-5"></g>
                        <polygon id="Fill-4" fill="#FDDFDF" mask="url(#mask-2)" points="-5 39.935 306 39.935 306 -4.959 -5 -4.959"></polygon>
                    </g>
                    <g id="Group-9" transform="translate(31.000000, 0.572000)">
                        <mask id="mask-4" fill="white">
                            <use xlink:href="#path-3"></use>
                        </mask>
                        <g id="Clip-8"></g>
                        <polygon id="Fill-7" fill="#FDDFDF" mask="url(#mask-4)" points="-5 43.428 233 43.428 233 -4.572 -5 -4.572"></polygon>
                    </g>
                    <g id="Group-12" transform="translate(27.000000, 37.572000)">
                        <mask id="mask-6" fill="white">
                            <use xlink:href="#path-5"></use>
                        </mask>
                        <g id="Clip-11"></g>
                        <polygon id="Fill-10" fill="#FDDFDF" mask="url(#mask-6)" points="-4.843 39.959 215.631 39.959 215.631 -4.935 -4.843 -4.935"></polygon>
                    </g>
                    <g id="Group-15" transform="translate(36.000000, 0.572000)">
                        <mask id="mask-8" fill="white">
                            <use xlink:href="#path-7"></use>
                        </mask>
                        <g id="Clip-14"></g>
                        <polygon id="Fill-13" fill="#FDDFDF" mask="url(#mask-8)" points="-4.19 43.404 227.6 43.404 227.6 -4.282 -4.19 -4.282"></polygon>
                    </g>
                </g>
                <g id="Group-4" transform="translate(36.000000, 41.000000)" fill="#5BBEFF">
                    <path d="M172.631,21.9632 C172.631,23.0692 171.732,23.9652 170.623,23.9652 L2.008,23.9652 C0.899,23.9652 0,23.0692 0,21.9632 L0,21.9522 C0,20.8472 0.899,19.9502 2.008,19.9502 L170.623,19.9502 C171.732,19.9502 172.631,20.8472 172.631,21.9522 L172.631,21.9632 Z" id="Fill-1"></path>
                    <path d="M204.7484,2.8939 C204.7484,3.9989 203.8494,4.8959 202.7404,4.8959 L34.1254,4.8959 C33.0164,4.8959 32.1174,3.9989 32.1174,2.8939 L32.1174,2.8829 C32.1174,1.7779 33.0164,0.8809 34.1254,0.8809 L202.7404,0.8809 C203.8494,0.8809 204.7484,1.7779 204.7484,2.8829 L204.7484,2.8939 Z" id="Fill-3"></path>
                    <path d="M194.21,12.4291 C194.21,13.5341 193.311,14.4311 192.202,14.4311 L23.587,14.4311 C22.478,14.4311 21.579,13.5341 21.579,12.4291 L21.579,12.4181 C21.579,11.3121 22.478,10.4161 23.587,10.4161 L192.202,10.4161 C193.311,10.4161 194.21,11.3121 194.21,12.4181 L194.21,12.4291 Z" id="Fill-5"></path>
                    <path d="M203.7448,12.4593 C203.7448,13.5483 202.8598,14.4313 201.7668,14.4313 L200.2028,14.4313 C199.1098,14.4313 198.2248,13.5483 198.2248,12.4593 L198.2248,12.3873 C198.2248,11.2983 199.1098,10.4163 200.2028,10.4163 L201.7668,10.4163 C202.8598,10.4163 203.7448,11.2983 203.7448,12.3873 L203.7448,12.4593 Z" id="Fill-7"></path>
                    <path d="M17.5642,12.4593 C17.5642,13.5483 16.6792,14.4313 15.5862,14.4313 L14.0222,14.4313 C12.9292,14.4313 12.0442,13.5483 12.0442,12.4593 L12.0442,12.3873 C12.0442,11.2983 12.9292,10.4163 14.0222,10.4163 L15.5862,10.4163 C16.6792,10.4163 17.5642,11.2983 17.5642,12.3873 L17.5642,12.4593 Z" id="Fill-9"></path>
                </g>
                <g id="Group-17" transform="translate(86.000000, 18.000000)">
                    <g id="Page-1-Copy">
                        <g id="Group-18" transform="translate(0.000000, 3.572000)">
                            <mask id="mask-10" fill="white">
                                <use xlink:href="#path-9"></use>
                            </mask>
                            <g id="Clip-17"></g>
                            <polygon id="Fill-16" fill="#004481" mask="url(#mask-10)" points="-4.65 70.394 116.386 70.394 116.386 -4.032 -4.65 -4.032"></polygon>
                        </g>
                        <g id="Group-21" transform="translate(0.000000, 0.572000)">
                            <mask id="mask-12" fill="white">
                                <use xlink:href="#path-11"></use>
                            </mask>
                            <g id="Clip-20"></g>
                            <polygon id="Fill-19" fill="#2A86CA" mask="url(#mask-12)" points="-4.65 70.379 116.386 70.379 116.386 -4.046 -4.65 -4.046"></polygon>
                        </g>
                        <g id="Group-24" transform="translate(24.000000, 0.572000)">
                            <mask id="mask-14" fill="white">
                                <use xlink:href="#path-13"></use>
                            </mask>
                            <g id="Clip-23"></g>
                            <polygon id="Fill-22" fill="#0977BA" mask="url(#mask-14)" points="-18.46 87.12 117.318 87.12 117.318 -33.663 -18.46 -33.663"></polygon>
                        </g>
                        <polygon id="Fill-25" fill="#072146" points="0.457 20.442 111.495 20.442 111.495 9.405 0.457 9.405"></polygon>
                        <polygon id="Fill-26" fill="#FFFFFF" points="14.537 48.58 97.413 48.58 97.413 40.936 14.537 40.936"></polygon>
                    </g>
                </g>
                <g id="Page-1" transform="translate(173.000000, 53.000000)">
                    <g id="Group-5" transform="translate(0.000000, 0.817707)">
                        <path d="M41.3592301,23.9948602 C41.3592301,35.3306247 32.171494,44.5183609 20.8342731,44.5183609 C9.49996486,44.5183609 0.307859793,35.3306247 0.307859793,23.9948602 C0.307859793,12.6605519 9.49996486,3.46699058 20.8342731,3.46699058 C32.171494,3.46699058 41.3592301,12.6605519 41.3592301,23.9948602" id="Fill-1" fill="#B9993D"></path>
                        <path d="M41.3592301,20.915971 C41.3592301,32.2517356 32.171494,41.440928 20.8342731,41.440928 C9.49996486,41.440928 0.307859793,32.2517356 0.307859793,20.915971 C0.307859793,9.58020646 9.49996486,0.388101394 20.8342731,0.388101394 C32.171494,0.388101394 41.3592301,9.58020646 41.3592301,20.915971" id="Fill-3" fill="#F7CC51"></path>
                    </g>
                    <g id="Group-8" transform="translate(0.000000, 0.817707)">
                        <mask id="mask-16" fill="white">
                            <use xlink:href="#path-15"></use>
                        </mask>
                        <g id="Clip-7"></g>
                        <polygon id="Fill-6" fill="#E9B542" mask="url(#mask-16)" points="0 47.8985566 48.7143705 -0.817270178 60.526342 59.7076155"></polygon>
                    </g>
                    <path d="M23.5651089,27.3454932 C23.5651089,25.8280386 22.9563795,25.213484 20.0860311,23.9173855 C15.9370597,22.034402 14.6715434,20.6086937 14.6715434,17.7019381 C14.6715434,14.8505215 16.4817123,12.7927831 19.3243912,12.1767723 L19.3243912,8.40352381 L19.523903,8.40352381 L22.8398763,10.1714604 L22.8398763,12.1068703 C23.9714139,12.2758 24.9908172,12.6296786 25.9315808,13.1714186 L26.1136171,13.2748152 L26.2359455,13.3476297 L26.2126449,13.4859773 L26.1820628,13.6942269 L25.7495445,16.3839953 L25.6694485,16.889328 L25.6184784,17.2271874 L25.3461521,17.0160253 L24.9369345,16.708748 C23.8155908,15.8495367 22.4248335,15.3558542 21.1010655,15.3558542 C19.3200223,15.3558542 18.3472204,16.1524451 18.3472204,17.5038826 C18.3472204,18.7650301 18.9748815,19.3548277 21.7986286,20.6436447 C25.9621629,22.5397348 27.2451548,24.0484517 27.2451548,27.1474377 C27.2451548,30.0265238 25.5427513,32.1410575 22.8398763,32.8983285 L22.8398763,36.907496 L22.6389082,36.907496 L19.3243912,35.1410157 L19.3243912,33.1546356 C17.6569387,33.0119191 16.0724947,32.564838 14.7370764,31.8614497 L14.5477587,31.7551405 L14.4210614,31.6881512 L14.4414495,31.5483473 L14.4720316,31.3328163 L14.8725114,28.5877089 L14.9438697,28.1115019 L14.9890147,27.7940306 L15.2569721,27.9702417 L15.657452,28.2338303 C17.2142264,29.2605151 18.9457557,29.8401186 20.5578692,29.8401186 C22.4306587,29.8401186 23.5651089,28.8920736 23.5651089,27.3454932" id="Fill-9" fill="#FFFFFF"></path>
                </g>
            </g>
        </g>
    </g>
</svg>