<?xml version="1.0" encoding="UTF-8" standalone="no"?>
<svg width="360px" height="180px" viewBox="0 0 360 180" version="1.1" xmlns="http://www.w3.org/2000/svg" xmlns:xlink="http://www.w3.org/1999/xlink">
    <!-- Generator: Sketch 49 (51002) - http://www.bohemiancoding.com/sketch -->
    <title>Illustration/Avisos</title>
    <desc>Created with Sketch.</desc>
    <defs>
        <path d="M36.0269985,12.1129206 C30.0112916,13.029362 24.5177372,15.8372693 20.243218,20.2585006 C14.9880709,25.689906 12.1093547,32.9730428 12.1363538,40.7661061 C12.141448,42.5205387 12.2061439,61.2365242 12.2173511,65.2232226 L0.641865588,85.2366936 C-0.142636797,86.5937808 0.493625202,87.6920841 2.06415822,87.6890276 L25.7765069,87.6380859 C25.7739599,87.7634025 25.7678468,87.8887192 25.7678468,88.0145452 C25.794846,96.0587511 32.3627611,102.626666 40.406967,102.653665 C48.4506635,102.680664 54.9732405,96.1575781 54.9477697,88.1133721 C54.9472602,87.9870367 54.9406378,87.8627389 54.9370719,87.7364034 L79.2342315,87.9625846 C80.8037457,87.9773577 81.450196,86.8795638 80.6814856,85.5117788 L69.3989149,65.4387061 L69.3163893,40.960194 C69.2914279,33.1763002 66.3108282,25.8687114 60.9247609,20.3833078 C56.7317485,16.1138828 51.4394139,13.1139253 45.6702648,12.0533188 L45.6300209,0.139070877 L35.9862451,0.106468181 L36.0269985,12.1129206 Z" id="path-1"></path>
        <path d="M0.284917003,0.550782903 L11.0034101,0.52775615 C11.000863,0.653072765 10.99475,0.77838938 10.99475,0.904215411 C11.0217491,8.94842136 17.5896642,15.5163365 25.6338701,15.5433356 C33.6775667,15.5703347 40.2001436,9.04724829 40.1746728,1.00304234 C40.1741634,0.876706886 40.167541,0.752409106 40.163975,0.626073657 L47.39887,0.693422981 L47.39887,0.370346256 L0.284917003,0.370346256 L0.284917003,0.550782903 Z" id="path-3"></path>
        <path d="M0.348441319,2.06357636 L3.87157021,2.05600755 C3.86902313,2.18132416 3.86291012,2.30664078 3.86291012,2.43246681 C3.86734138,3.75273145 4.04796789,5.03322866 4.38239827,6.25156706 L32.5736798,6.25156706 C32.8836768,5.06403141 33.0469042,3.81709443 33.0428329,2.53129373 C33.0423235,2.40495829 33.0357011,2.28066051 33.0321352,2.15432506 L36.2338219,2.18412942 L36.2338219,0.339781228 L0.348441319,0.339781228 L0.348441319,2.06357636 Z" id="path-5"></path>
        <path d="M45.6648103,0.250174754 L45.6702648,1.86497612 C51.4394139,2.9255826 56.7317485,5.92554009 60.9247609,10.1949651 C66.3108282,15.6803688 69.2914279,22.9879576 69.3163893,30.7718513 L69.3989149,55.2503634 L80.6814856,75.3234361 C81.450196,76.6912212 80.8037457,77.7890151 79.2342315,77.774242 L54.9370719,77.5480608 C54.9406378,77.6743962 54.9472602,77.798694 54.9477697,77.9250294 C54.9732405,85.9692354 48.4506635,92.4923218 40.406967,92.4653227 C32.3627611,92.4383236 25.794846,85.8704085 25.7678468,77.8262025 C25.7678468,77.7003765 25.7739599,77.5750599 25.7765069,77.4497433 L2.06415822,77.500685 C0.493625202,77.5037415 -0.142636797,76.4054381 0.641865588,75.0483509 L12.2173511,55.03488 C12.2061439,51.0481815 12.141448,32.332196 12.1363538,30.5777634 C12.1093547,22.7847001 14.9880709,15.5015634 20.243218,10.0701579 C24.5177372,5.64892659 30.0112916,2.84101935 36.0269985,1.92457793 L36.0213151,0.250174754 L45.6648103,0.250174754 Z" id="path-7"></path>
        <path d="M0.496726872,12.8577903 C1.61934863,12.5396714 2.76670862,12.2907046 3.9337191,12.1129206 L3.89296573,0.106468181 L13.5367415,0.139070877 L13.5769854,12.0533188 C14.6671411,12.2537342 15.7402712,12.523398 16.7921754,12.8577903 L0.496726872,12.8577903 Z" id="path-9"></path>
        <polygon id="path-11" points="0.438760977 9.48432819 49.5148359 9.48432819 49.5148359 0.409061958 0.438760977 0.409061958 0.438760977 9.48432819"></polygon>
    </defs>
    <g id="MX_Notifications" stroke="none" stroke-width="1" fill="none" fill-rule="evenodd">
        <g id="MX-Notifications-03-04-00-00-00-02" transform="translate(0.000000, -80.000000)">
            <g id="Illustration/Avisos" transform="translate(0.000000, 80.000000)">
                <g id="Group">
                    <g id="Page-1">
                        <polygon id="Fill-1" fill="#2A86CA" points="0 179.785532 360.699933 179.785532 360.699933 -5.68434189e-14 0 -5.68434189e-14"></polygon>
                        <g id="Group-12" opacity="0.270323822" transform="translate(18.848434, 20.847387)">
                            <path d="M215.75405,134.716431 C215.75405,138.671036 192.582193,141.876288 163.997778,141.876288 C135.414892,141.876288 112.243035,138.671036 112.243035,134.716431 C112.243035,130.761825 135.414892,127.556573 163.997778,127.556573 C192.582193,127.556573 215.75405,130.761825 215.75405,134.716431" id="Fill-2" fill="#072146" opacity="0.31"></path>
                            <path d="M320.710943,42.328896 L327.835651,42.3513103 C328.270184,41.6849927 328.522854,40.8979432 328.524383,40.047726 C328.527439,37.7054261 326.634955,35.7971495 324.290108,35.7895082 C323.533623,35.7874706 322.827571,35.9866527 322.210667,36.3274527 C322.002315,32.369791 318.733895,29.2246496 314.72631,29.212933 C311.124222,29.2058012 308.108472,31.7263972 307.363195,35.1028139 C306.583277,34.5867744 305.646459,34.2862183 304.641379,34.2816335 C301.893074,34.2739923 299.660808,36.4940321 299.651638,39.2423376 C299.65011,40.3844508 300.033192,41.4353783 300.677605,42.2794825 L308.555741,42.2973121" id="Fill-4" fill="#FFFFFF" opacity="0.3"></path>
                            <path d="M263.921375,23.5809191 L253.969402,23.6130124 C253.362177,22.6817979 253.00966,21.5829851 253.006604,20.3945149 C253.003038,17.1230381 255.646404,14.4572582 258.922465,14.4480887 C259.977977,14.4440134 260.9637,14.7216457 261.826652,15.1979508 C262.118039,9.67077486 266.683435,5.27705208 272.280911,5.26075073 C277.311914,5.25209064 281.525303,8.77165362 282.565533,13.4888563 C283.654667,12.7665028 284.96336,12.3462336 286.366804,12.3416489 C290.20679,12.3304417 293.323914,15.4307544 293.33614,19.2697219 C293.338687,20.8647069 292.803799,22.3328471 291.903659,23.5126572 L280.900758,23.5371092" id="Fill-6" fill="#FFFFFF" opacity="0.3"></path>
                            <path d="M38.0600313,23.5729722 L50.7684606,23.6132161 C51.5427746,22.4252554 51.9941182,21.0213018 51.9971747,19.5042575 C52.0017594,15.3270371 48.6268709,11.9236212 44.4445563,11.9108858 C43.0946009,11.9057916 41.83685,12.2613647 40.7349807,12.86859 C40.3625968,5.81112501 34.5333365,0.198876449 27.3846859,0.179518598 C20.9614453,0.168311421 15.5809815,4.66187995 14.2524216,10.6867564 C12.860694,9.76369254 11.1903152,9.22625747 9.39869517,9.22065388 C4.49402701,9.20537136 0.513441529,13.166599 0.498159015,18.0682106 C0.495611929,20.1028227 1.17823089,21.979006 2.32849477,23.4868807 L16.3782193,23.5169363" id="Fill-8" fill="#FFFFFF" opacity="0.3"></path>
                            <path d="M157.777999,25.3574095 C151.761783,26.2743603 146.268228,29.0822675 141.994219,33.5034988 C136.738562,38.9349043 133.860355,46.2175317 133.887354,54.0111044 C133.891939,55.7650276 133.956635,74.4815225 133.968352,78.4682209 L122.392866,98.4811824 C121.608364,99.8387791 122.244116,100.936573 123.814649,100.934026 L147.527507,100.883084 C147.524451,101.008401 147.518338,101.133717 147.518338,101.259543 C147.545337,109.303749 154.113252,115.871665 162.157967,115.898664 C170.201155,115.925153 176.723732,109.402576 176.69877,101.357861 C176.698261,101.232035 176.691129,101.107228 176.687563,100.981402 L200.984723,101.207074 C202.554237,101.222356 203.200687,100.124562 202.431977,98.7567771 L191.149915,78.6837044 L191.06739,54.2051923 C191.041919,46.4212985 188.061319,39.1137097 182.675252,33.6277966 C178.482749,29.3583716 173.189905,26.3584141 167.421265,25.2983171 L167.381021,13.3840692 L157.737246,13.3514665 L157.777999,25.3574095 Z" id="Fill-10" fill="#F8CD51"></path>
                        </g>
                        <g id="Group-30" transform="translate(140.599129, 34.092232)">
                            <g id="Group-15">
                                <mask id="mask-2" fill="white">
                                    <use xlink:href="#path-1"></use>
                                </mask>
                                <g id="Clip-14"></g>
                                <polygon id="Fill-13" fill="#F8CD51" mask="url(#mask-2)" points="-28.584567 61.3255703 40.7914241 -8.05042084 110.168434 61.3255703 40.7919335 130.701561"></polygon>
                            </g>
                            <g id="Group-18" transform="translate(14.773097, 87.110330)">
                                <mask id="mask-4" fill="white">
                                    <use xlink:href="#path-3"></use>
                                </mask>
                                <g id="Clip-17"></g>
                                <path d="M2.66847977,1.10339751 L47.39887,0.370346256 L45.5659871,17.0527385 C45.5659871,17.0527385 19.3498532,25.8519007 18.4339212,25.6685105 C17.5174798,25.4856298 5.05153312,20.5356235 5.05153312,20.5356235 L0.284917003,12.8357835 L2.66847977,1.10339751 Z" id="Fill-16" fill="#BA9A3D" mask="url(#mask-4)"></path>
                            </g>
                            <g id="Group-21" transform="translate(21.904937, 85.582078)">
                                <mask id="mask-6" fill="white">
                                    <use xlink:href="#path-5"></use>
                                </mask>
                                <g id="Clip-20"></g>
                                <polygon id="Fill-19" fill="#6B5BAC" mask="url(#mask-6)" points="0.348441319 6.25156706 36.2338219 6.25156706 36.2338219 0.339781228 0.348441319 0.339781228"></polygon>
                            </g>
                            <g id="Group-26" transform="translate(0.000000, 10.188343)">
                                <mask id="mask-8" fill="white">
                                    <use xlink:href="#path-7"></use>
                                </mask>
                                <g id="Clip-25"></g>
                                <polygon id="Fill-22" fill="#6B5BAC" opacity="0.608299366" mask="url(#mask-8)" points="4.97445831 63.1305371 77.020814 63.1305371 77.020814 58.0781379 4.97445831 58.0781379"></polygon>
                                <polygon id="Fill-24" fill-opacity="0.47" fill="#A28E58" mask="url(#mask-8)" points="-0.774568751 82.8832373 81.8579844 0.250174754 112.518783 63.3593163 69.8963607 96.0822353 34.4236081 102.131564"></polygon>
                            </g>
                            <g id="Group-29" transform="translate(32.093279, 0.000000)">
                                <mask id="mask-10" fill="white">
                                    <use xlink:href="#path-9"></use>
                                </mask>
                                <g id="Clip-28"></g>
                                <path d="M0.495968521,12.8577903 C0.495968521,12.8577903 4.93910476,10.7375962 16.5706262,12.4782746 C27.9382695,14.1797278 23.8721019,1.31337925 23.8721019,1.31337925 L11.2640279,-5.9458149 L0.948330935,-6.7099406 L-2.20597995,0.549253553 L0.495968521,12.8577903 Z" id="Fill-27" fill="#A28E58" mask="url(#mask-10)"></path>
                            </g>
                        </g>
                        <polygon id="Fill-31" fill="#BA9A3D" points="149.240881 104.197199 213.037226 104.197199 213.037226 95.1224424 149.240881 95.1224424"></polygon>
                        <g id="Group-35" transform="translate(163.522900, 94.712871)">
                            <mask id="mask-12" fill="white">
                                <use xlink:href="#path-11"></use>
                            </mask>
                            <g id="Clip-34"></g>
                            <polygon id="Fill-33" fill="#072146" opacity="0.270323822" mask="url(#mask-12)" points="0.438760977 16.8928325 25.2300552 -7.89897113 68.3608756 -6.87962744 63.2667043 16.8928325 25.2305646 20.6288978"></polygon>
                        </g>
                        <g id="Group-49" transform="translate(118.694192, 20.337970)">
                            <polygon id="Fill-36" fill="#FADE8E" points="30.546689 75.8165519 94.3430342 75.8165519 94.3430342 73.5532116 30.546689 73.5532116"></polygon>
                            <polygon id="Fill-38" fill="#FADE8E" points="57.6201719 25.9548029 58.6099694 25.9548029 58.6099694 13.8607308 57.6201719 13.8607308"></polygon>
                            <polygon id="Fill-39" fill="#BA9A3D" points="66.9170346 25.9548029 67.9068321 25.9548029 67.9068321 13.8607308 66.9170346 13.8607308"></polygon>
                            <polygon id="Fill-40" fill="#FADE8E" points="22.210587 98.4932556 102.576743 98.4932556 102.576743 96.7097862 22.210587 96.7097862"></polygon>
                            <polygon id="Fill-41" fill="#BA9A3D" points="21.4724416 101.733149 102.910921 101.733149 102.910921 98.3012054 21.4724416 98.3012054"></polygon>
                            <path d="M105.835892,39.4290899 C105.835892,46.8706554 99.8033746,52.903173 92.3618091,52.903173 C84.9197342,52.903173 78.8877259,46.8706554 78.8877259,39.4290899 C78.8877259,31.9875244 84.9197342,25.9550067 92.3618091,25.9550067 C99.8033746,25.9550067 105.835892,31.9875244 105.835892,39.4290899" id="Fill-42" fill="#DA3851"></path>
                            <g id="Group-46" fill="#072146" opacity="0.66">
                                <path d="M2.08988379,38.468431 C1.15153743,38.468431 0.389958815,37.7068524 0.389958815,36.7679967 C0.389958815,16.7422997 16.682647,0.450630396 36.7078345,0.450630396 C36.8958094,0.450630396 37.0827655,0.45164923 37.2707404,0.454705733 C38.2090868,0.469988247 38.9584394,1.24328346 38.9436663,2.18213923 C38.9283838,3.11233492 38.1703711,3.85557451 37.2442507,3.85557451 L37.2162328,3.85557451 C37.0471063,3.85251801 36.8779798,3.85098976 36.7078345,3.85098976 C18.557302,3.85098976 3.7908276,18.6169548 3.7908276,36.7679967 C3.7908276,37.7068524 3.02924898,38.468431 2.08988379,38.468431" id="Fill-43"></path>
                                <path d="M9.7107641,38.468431 C8.77241774,38.468431 8.01083913,37.7068524 8.01083913,36.7679967 C8.01083913,20.9444817 20.8848289,8.07100129 36.7078345,8.07100129 C37.6471997,8.07100129 38.4077595,8.83207049 38.4077595,9.77143568 C38.4077595,10.7102915 37.6471997,11.4718701 36.7078345,11.4718701 C22.7589746,11.4718701 11.4111985,22.8196461 11.4111985,36.7679967 C11.4111985,37.7068524 10.6496199,38.468431 9.7107641,38.468431" id="Fill-44"></path>
                                <path d="M18.1852747,38.9912968 C17.2698521,38.9912968 16.5143865,38.2633397 16.486878,37.3423135 C16.480765,37.1517915 16.4777085,36.9597413 16.4777085,36.7682004 C16.4777085,25.612984 25.5534841,16.5387366 36.7076817,16.5387366 C37.6470469,16.5387366 38.4076066,17.3003153 38.4076066,18.239171 C38.4076066,19.1775174 37.6470469,19.939096 36.7076817,19.939096 C27.4286486,19.939096 19.8785773,27.4886579 19.8785773,36.7682004 C19.8785773,36.9256103 19.8806149,37.0835296 19.8851997,37.2399207 C19.913727,38.1787765 19.1755816,38.96226 18.2377447,38.990278 C18.2194057,38.9907874 18.2020855,38.9912968 18.1852747,38.9912968" id="Fill-45"></path>
                            </g>
                            <path d="M65.8884195,31.0669567 C63.8609394,30.4419019 61.7066143,30.1046677 59.4743484,30.1046677 C47.4459911,30.1046677 37.6962566,39.8559305 37.6962566,51.8827596 C37.6962566,54.1155349 38.0334907,56.2693505 38.6580361,58.2973401 L65.8884195,31.0669567 Z" id="Fill-47" fill="#FDF0CA"></path>
                            <polygon id="Fill-48" fill="#FFFFFF" points="92.2517241 45.420192 92.2517241 35.0729111 89.9084053 35.7331158 89.6445272 34.050511 92.3179483 33.2084444 94.2323379 33.2084444 94.2323379 45.420192"></polygon>
                        </g>
                    </g>
                </g>
            </g>
        </g>
    </g>
</svg>