<?xml version="1.0" encoding="UTF-8" standalone="no"?>
<svg width="360px" height="180px" viewBox="0 0 360 180" version="1.1" xmlns="http://www.w3.org/2000/svg" xmlns:xlink="http://www.w3.org/1999/xlink">
    <!-- Generator: Sketch 49 (51002) - http://www.bohemiancoding.com/sketch -->
    <title>Illustration/Cargo</title>
    <desc>Created with Sketch.</desc>
    <defs>
        <polygon id="path-1" points="0.501805268 180.906035 360.501805 180.906035 360.501805 0.906035219 0.501805268 0.906035219"></polygon>
        <path d="M10.0581241,59.5742722 L97.8859371,59.5742722 C100.544094,59.5742722 102.699399,57.4193583 102.699399,54.7596371 L102.699399,4.82984147 C102.699399,2.17129326 100.544094,0.0140332904 97.8859371,0.0140332904 L10.0581241,0.0140332904 L10.0581241,59.5742722 Z" id="path-3"></path>
        <path d="M0.339092957,59.600514 L88.1669059,59.600514 C90.8250631,59.600514 92.980368,57.4463822 92.980368,54.7858789 L92.980368,4.85647431 C92.980368,2.19831712 90.8250631,0.0406661295 88.1669059,0.0406661295 L0.339092957,0.0406661295 L0.339092957,59.600514 Z" id="path-5"></path>
        <path d="M0.0645183785,17.1247417 C0.0645183785,26.4357213 7.63662989,33.9831985 16.976936,33.9831985 C26.315678,33.9831985 33.8866165,26.4357213 33.8866165,17.1247417 C33.8866165,7.81454421 26.315678,0.262374739 16.976936,0.262374739 C7.63662989,0.262374739 0.0645183785,7.81454421 0.0645183785,17.1247417 Z" id="path-7"></path>
        <path d="M0.300694746,7.28705759 C0.300694746,11.1041995 3.40461528,14.1987355 7.23426983,14.1987355 C11.0623603,14.1987355 14.1666718,11.1041995 14.1666718,7.28705759 C14.1666718,3.47030672 11.0623603,0.374206595 7.23426983,0.374206595 C3.40461528,0.374206595 0.300694746,3.47030672 0.300694746,7.28705759 Z" id="path-9"></path>
        <path d="M0.28740005,4.92177473 C0.28740005,7.50329191 2.38678899,9.5960335 4.97690862,9.5960335 C7.56585519,9.5960335 9.6648531,7.50329191 9.6648531,4.92177473 C9.6648531,2.34025755 7.56585519,0.24673392 4.97690862,0.24673392 C2.38678899,0.24673392 0.28740005,2.34025755 0.28740005,4.92177473 Z" id="path-11"></path>
    </defs>
    <g id="MX_Notifications" stroke="none" stroke-width="1" fill="none" fill-rule="evenodd">
        <g id="MX-Notifications-03-02-02-02-00-01" transform="translate(0.000000, -80.000000)">
            <g id="Illustration/Cargo" transform="translate(0.000000, 80.000000)">
                <g id="Page-1" transform="translate(-1.000000, -1.000000)">
                    <g id="Group-7" transform="translate(0.498195, 0.093965)">
                        <g id="Fill-5-+-Fill-5-Copy-Mask">
                            <mask id="mask-2" fill="white">
                                <use xlink:href="#path-1"></use>
                            </mask>
                            <use id="Mask" fill="#68CCCC" xlink:href="#path-1"></use>
                            <path d="M49.1898155,53.8151669 L36.2521293,53.8562478 C35.4631499,52.6463294 35.0056319,51.2175001 35.0000044,49.6727437 C34.9955024,45.4194583 38.4327963,41.9540267 42.6905838,41.9416461 C44.0631378,41.9365814 45.3450886,42.2978687 46.4666549,42.9163339 C46.8448247,35.7316693 52.7796155,30.0197287 60.0582598,30.0000324 C66.5985725,29.9859635 72.0724687,34.5611436 73.4287029,40.6957115 C74.8434633,39.7559144 76.544665,39.2089187 78.3707977,39.2027284 C83.3629775,39.1897851 87.4142347,43.2202204 87.4299918,48.2124003 C87.4328056,50.2833305 86.7378059,52.1933134 85.5667174,53.7256892 L71.2626674,53.7577661" id="Fill-5" fill-opacity="0.400000006" fill="#FFFFFF" mask="url(#mask-2)"></path>
                            <path d="M346.513208,160.177035 L334.192425,160.216157 C333.441066,159.06393 333.005363,157.703231 333.000004,156.232133 C332.995717,152.181655 336.269112,148.881465 340.323877,148.869674 C341.630984,148.864851 342.851808,149.208911 343.919895,149.797887 C344.280032,142.955806 349.931837,137.516225 356.863416,137.497468 C363.09187,137.48407 368.304756,141.841094 369.596321,147.683149 C370.943622,146.788164 372.563706,146.267251 374.302764,146.261355 C379.056904,146.249029 382.914986,150.087283 382.929992,154.841423 C382.932672,156.813605 382.270812,158.632515 381.155564,160.091823 L367.533568,160.122371" id="Fill-5-Copy" fill-opacity="0.400000006" fill="#FFFFFF" mask="url(#mask-2)"></path>
                        </g>
                    </g>
                    <g id="tarjeta" transform="translate(61.060802, 86.632251)">
                        <path d="M102.699438,57.0103509 C102.699438,59.6708542 100.544133,61.824986 97.8855851,61.824986 L5.51168994,61.824986 C2.85235969,61.824986 0.698227885,59.6708542 0.698227885,57.0103509 L0.698227885,7.08133737 C0.698227885,4.42278916 2.85235969,2.26513817 5.51168994,2.26513817 L97.8855851,2.26513817 C100.544133,2.26513817 102.699438,4.42278916 102.699438,7.08133737 L102.699438,57.0103509 Z" id="Fill-6" fill="#004481"></path>
                        <path d="M102.699438,54.7596762 C102.699438,57.4193974 100.544133,59.5743113 97.8855851,59.5743113 L5.51168994,59.5743113 C2.85235969,59.5743113 0.698227885,57.4193974 0.698227885,54.7596762 L0.698227885,4.82988057 C0.698227885,2.17133236 2.85235969,0.0140723925 5.51168994,0.0140723925 L97.8855851,0.0140723925 C100.544133,0.0140723925 102.699438,2.17133236 102.699438,4.82988057 L102.699438,54.7596762 Z" id="Fill-11" fill="#2A86CA"></path>
                        <mask id="mask-4" fill="white">
                            <use xlink:href="#path-3"></use>
                        </mask>
                        <g id="Clip-14"></g>
                        <path d="M10.0581241,72.8008526 L96.2785301,-13.4207264 L125.603111,56.2837567 C125.603111,56.2837567 80.1348587,76.0768221 77.9936306,75.0077722 C75.8531845,73.935203 38.9455438,71.7974941 38.9455438,71.7974941 L10.0581241,72.8008526 Z" id="Fill-13" fill="#0977BA" mask="url(#mask-4)"></path>
                        <polygon id="Fill-16" fill="#072146" mask="url(#mask-4)" points="0.796725943 17.5043792 102.797936 17.5043792 102.797936 7.29991782 0.796725943 7.29991782"></polygon>
                        <polygon id="Fill-18" fill="#FFFFFF" mask="url(#mask-4)" points="13.7316833 43.5146702 89.8629789 43.5146702 89.8629789 36.4504943 13.7316833 36.4504943"></polygon>
                    </g>
                    <polygon id="Fill-16" fill="#072146" points="61.8575276 104.13663 163.858738 104.13663 163.858738 93.9321689 61.8575276 93.9321689"></polygon>
                    <g id="Group-35" transform="translate(274.264760, 36.331815)"></g>
                    <g id="Group-45" transform="translate(224.450880, 72.581614)"></g>
                    <g id="monedas" transform="translate(76.000000, 35.000000)">
                        <g id="Group-10" transform="translate(0.779833, 61.856723)">
                            <mask id="mask-6" fill="white">
                                <use xlink:href="#path-5"></use>
                            </mask>
                            <g id="Clip-9"></g>
                        </g>
                        <g id="Group-15" transform="translate(0.779833, 59.510600)"></g>
                        <g id="Group-25" transform="translate(76.786362, 0.466508)">
                            <g id="lines" transform="translate(0.560707, 13.321490)" fill="#FFFFFF" opacity="0.5">
                                <path d="M10.9494292,63.9359577 C9.89367394,64.4024451 8.65374801,63.942605 8.18139528,62.9075738 L8.15050466,62.8395362 C7.67697886,61.8056781 8.14972262,60.5888224 9.20508688,60.122726 L10.7171631,59.454863 C11.7729183,58.9887666 13.0116712,59.4489977 13.484806,60.4836379 L13.5156966,60.5512844 C13.9888314,61.5851426 13.5168697,62.8019983 12.4611144,63.2684857 L10.9494292,63.9359577 Z" id="Fill-19"></path>
                                <path d="M117.185048,0.417449115 L24.4925407,42.4829712 C23.4199716,42.956497 22.8580751,44.0102971 23.3382483,45.0609692 C23.8231137,46.1210257 25.1643139,46.7701197 26.236492,46.2962028 L118.929781,4.23107182 L117.185048,0.417449115 Z" id="Fill-20"></path>
                                <path d="M119.32705,11.4746955 L18.4492411,56.0392991 C17.3770629,56.5128249 16.8151665,57.5662341 17.2953396,58.6165151 L17.3000319,58.6262906 C17.780205,59.6765716 19.1210142,60.3260566 20.1928014,59.8529218 L121.071392,15.2879272 L119.32705,11.4746955 Z" id="Fill-21"></path>
                                <path d="M127.469403,17.5307688 L1.73612657,74.3085969 C0.664730464,74.7817317 0.101660979,75.8359229 0.582616164,76.8862039 C1.06709053,77.9466514 2.40829077,78.5953544 3.48046891,78.1218286 L129.213354,21.3443915 L127.469403,17.5307688 Z" id="Fill-22"></path>
                            </g>
                            <path d="M150.65326,19.6531974 C150.65326,28.9649591 143.082322,36.5124363 133.74358,36.5124363 C124.403274,36.5124363 116.831162,28.9649591 116.831162,19.6531974 C116.831162,10.3422179 124.403274,2.79239452 133.74358,2.79239452 C143.082322,2.79239452 150.65326,10.3422179 150.65326,19.6531974" id="Fill-23" fill="#BA9A3D"></path>
                            <path d="M150.65326,17.1245462 C150.65326,26.4355258 143.082322,33.983003 133.74358,33.983003 C124.403274,33.983003 116.831162,26.4355258 116.831162,17.1245462 C116.831162,7.8143487 124.403274,0.26257025 133.74358,0.26257025 C143.082322,0.26257025 150.65326,7.8143487 150.65326,17.1245462" id="Fill-24" fill="#F8CD51"></path>
                        </g>
                        <g id="Group-28" transform="translate(193.552927, 0.466508)">
                            <mask id="mask-8" fill="white">
                                <use xlink:href="#path-7"></use>
                            </mask>
                            <g id="Clip-27"></g>
                            <polygon id="Fill-26" fill="#EAB642" mask="url(#mask-8)" points="-0.188980196 39.2893855 39.9465345 -0.728041024 49.676297 48.9906035"></polygon>
                        </g>
                        <path d="M212.77827,22.201968 C212.77827,20.9550037 212.277373,20.4505873 209.912872,19.3862296 C206.494571,17.8397436 205.449765,16.6674642 205.449765,14.2810663 C205.449765,11.9368985 206.943072,10.2480811 209.284111,9.74210058 L209.284111,6.64209024 L209.449904,6.64209024 L212.181573,8.09355825 L212.181573,9.68383852 C213.114548,9.82343283 213.952896,10.113179 214.72868,10.5562052 L214.878441,10.6430118 L214.978934,10.7012738 L214.960947,10.8174069 L214.932402,10.9867188 L214.57892,13.1967665 L214.51401,13.6116392 L214.470216,13.8880907 L214.246943,13.7168237 L213.910275,13.4638335 C212.985902,12.7584325 211.839821,12.3513802 210.746919,12.3513802 C209.280592,12.3513802 208.479391,13.0075126 208.479391,14.1172287 C208.479391,15.1534329 208.997102,15.6359522 211.321719,16.6963997 C214.752533,18.2546163 215.810243,19.4937602 215.810243,22.0389125 C215.810243,24.4022403 214.407262,26.1383712 212.181573,26.7628309 L212.181573,30.0552233 L212.016171,30.0552233 L209.284111,28.6045373 L209.284111,26.9735909 C207.91202,26.8562848 206.606012,26.4891165 205.506071,25.9084511 L205.350054,25.8255548 L205.243697,25.7684658 L205.261684,25.6542878 L205.286318,25.4787196 L205.617121,23.2209674 L205.675383,22.8291649 L205.714094,22.5687452 L205.933457,22.7149869 L206.263478,22.9300482 C207.546025,23.7746524 208.972077,24.2501333 210.300765,24.2501333 C211.844122,24.2501333 212.77827,23.4716115 212.77827,22.201968" id="Fill-29" fill="#FFFFFF"></path>
                        <path d="M168.617395,50.6292348 C168.617395,54.4471588 165.513475,57.5413038 161.684993,57.5413038 C157.85573,57.5413038 154.751418,54.4471588 154.751418,50.6292348 C154.751418,46.812093 157.85573,43.7167749 161.684993,43.7167749 C165.513475,43.7167749 168.617395,46.812093 168.617395,50.6292348" id="Fill-41" fill="#BA9A3D"></path>
                        <path d="M168.617395,49.5928742 C168.617395,53.4100161 165.513475,56.5045521 161.684993,56.5045521 C157.85573,56.5045521 154.751418,53.4100161 154.751418,49.5928742 C154.751418,45.7757323 157.85573,42.6796322 161.684993,42.6796322 C165.513475,42.6796322 168.617395,45.7757323 168.617395,49.5928742" id="Fill-43" fill="#F8CD51"></path>
                        <g id="Group-48" transform="translate(154.450880, 42.305699)">
                            <mask id="mask-10" fill="white">
                                <use xlink:href="#path-9"></use>
                            </mask>
                            <g id="Clip-47"></g>
                            <polygon id="Fill-46" fill="#EAB642" mask="url(#mask-10)" points="0.196683299 16.373826 16.6512159 -0.0322200872 20.6400158 20.3512863"></polygon>
                        </g>
                        <g id="Group-55" transform="translate(125.124344, 41.914679)">
                            <path d="M37.4822453,9.56838835 C37.4822453,9.05693357 37.2773505,8.85047476 36.3076198,8.41409591 C34.9062024,7.7798607 34.478035,7.29929653 34.478035,6.3209633 C34.478035,5.35983497 35.090373,4.66772873 36.0503283,4.46009685 L36.0503283,3.18928031 L36.1183659,3.18928031 L37.2378575,3.78441347 L37.2378575,4.43624461 C37.6206665,4.4933336 37.9635915,4.61220382 38.2818821,4.79363732 L38.3432724,4.8296112 L38.3847205,4.85346345 L38.3772911,4.90077693 L38.3655605,4.97037858 L38.220883,5.87637302 L38.1939025,6.04646693 L38.1759156,6.15986286 L38.0844168,6.0898702 L37.9463866,5.98624977 C37.5674877,5.69689462 37.0978721,5.52992888 36.6497627,5.52992888 C36.0483732,5.52992888 35.719916,5.79895096 35.719916,6.25370778 C35.719916,6.67835601 35.9326311,6.87621238 36.885548,7.31141817 C38.2916577,7.9499546 38.7256904,8.4578902 38.7256904,9.50152385 C38.7256904,10.4704726 38.1504993,11.1821299 37.2378575,11.4382483 L37.2378575,12.7876599 L37.1698199,12.7876599 L36.0503283,12.1933088 L36.0503283,11.5246638 C35.4872588,11.4765683 34.9519518,11.3260254 34.5011052,11.0882849 L34.4373688,11.0538751 L34.3939656,11.0304139 L34.4006129,10.9834915 L34.4111705,10.9119347 L34.5464635,9.98599822 L34.5707068,9.8252888 L34.5863476,9.71893124 L34.6762823,9.77875737 L34.8115754,9.86673698 C35.337498,10.2131811 35.9220736,10.4079093 36.4663741,10.4079093 C37.0994362,10.4079093 37.4822453,10.0888366 37.4822453,9.56838835" id="Fill-49" fill="#FFFFFF"></path>
                            <path d="M9.66516592,5.62267893 C9.66516592,8.20497816 7.56577698,10.2973287 4.97722143,10.2973287 C2.3871018,10.2973287 0.287712866,8.20497816 0.287712866,5.62267893 C0.287712866,3.04116175 2.3871018,0.948029144 4.97722143,0.948029144 C7.56577698,0.948029144 9.66516592,3.04116175 9.66516592,5.62267893" id="Fill-51" fill="#BA9A3D"></path>
                            <path d="M9.66516592,4.92197024 C9.66516592,7.50348742 7.56577698,9.59622901 4.97722143,9.59622901 C2.3871018,9.59622901 0.287712866,7.50348742 0.287712866,4.92197024 C0.287712866,2.34006204 2.3871018,0.24653841 4.97722143,0.24653841 C7.56577698,0.24653841 9.66516592,2.34006204 9.66516592,4.92197024" id="Fill-53" fill="#F8CD51"></path>
                        </g>
                        <g id="Group-58" transform="translate(125.124344, 41.914679)">
                            <mask id="mask-12" fill="white">
                                <use xlink:href="#path-11"></use>
                            </mask>
                            <g id="Clip-57"></g>
                            <polygon id="Fill-56" fill="#EAB642" mask="url(#mask-12)" points="0.217290078 11.0671698 11.3457328 -0.0284271886 14.0429921 13.7569997"></polygon>
                        </g>
                        <path d="M129.930142,47.3342617 C128.982309,46.9053122 128.692953,46.5803742 128.692953,45.9187676 C128.692953,45.2688915 129.106653,44.800449 129.755747,44.6600727 L129.755747,43.8006097 L129.802279,43.8006097 L130.558903,44.2029697 L130.558903,44.6440408 C130.817759,44.6827519 131.050025,44.7633021 131.265477,44.8856915 L131.306534,44.9103258 L131.335079,44.9263576 L131.329604,44.9584213 L131.321784,45.0053437 L131.223638,45.6176818 L131.205651,45.7330329 L131.193529,45.8096729 L131.131748,45.7619684 L131.038685,45.6923667 C130.781785,45.4964655 130.464276,45.3838516 130.161626,45.3838516 C129.754965,45.3838516 129.532474,45.5656761 129.532474,45.8734092 C129.532474,46.1604182 129.67637,46.2941472 130.320772,46.5885857 C131.271733,47.0202723 131.564999,47.3639793 131.564999,48.0697712 C131.564999,48.7251215 131.176324,49.2060767 130.558903,49.3792988 L130.558903,50.2919406 L130.513154,50.2919406 L129.755747,49.8899715 L129.755747,49.4379519 C129.375284,49.4054972 129.013199,49.3038318 128.708594,49.1427314 L128.6648,49.1192702 L128.635473,49.1036294 L128.640557,49.0719567 L128.647204,49.0234702 L128.739094,48.3974464 L128.755126,48.2887427 L128.765683,48.2167949 L128.826682,48.25707 L128.918181,48.3168962 C129.273619,48.5511174 129.669332,48.6828913 130.037282,48.6828913 C130.46584,48.6828913 130.724305,48.466657 130.724305,48.1147386 C130.724305,47.7690765 130.585884,47.6294822 129.930142,47.3342617 Z" id="Fill-59" fill="#FFFFFF"></path>
                    </g>
                </g>
            </g>
        </g>
    </g>
</svg>