<?xml version="1.0" encoding="UTF-8" standalone="no"?>
<svg width="360px" height="180px" viewBox="0 0 360 180" version="1.1" xmlns="http://www.w3.org/2000/svg" xmlns:xlink="http://www.w3.org/1999/xlink">
    <!-- Generator: Sketch 49 (51002) - http://www.bohemiancoding.com/sketch -->
    <title>Illustration/Abono_remuneraciones</title>
    <desc>Created with Sketch.</desc>
    <defs>
        <rect id="path-1" x="0" y="0" width="360" height="180"></rect>
        <polygon id="path-3" points="8.02826609 15.3270867 0.42187116 7.72033143 8.02826609 0.115106529 8.02826609 15.3270867"></polygon>
        <polygon id="path-5" points="8.02826609 15.3270867 0.42187116 7.72033143 8.02826609 0.115106529 8.02826609 15.3270867"></polygon>
        <polygon id="path-7" points="15.6119181 7.74443116 8.0075249 0.139137211 0.40106091 7.74443116 15.6119181 7.74443116"></polygon>
        <polygon id="path-9" points="15.6119181 7.74443116 8.0075249 0.139137211 0.40106091 7.74443116 15.6119181 7.74443116"></polygon>
        <polygon id="path-11" points="0 160.542936 321.200036 160.542936 321.200036 0 0 0"></polygon>
        <polygon id="path-13" points="0.425438781 50.1705595 58.7631742 50.1705595 58.7631742 0.572603139 0.425438781 0.572603139"></polygon>
        <polygon id="path-15" points="0 160.542936 321.200036 160.542936 321.200036 0 0 0"></polygon>
    </defs>
    <g id="MX_Notifications" stroke="none" stroke-width="1" fill="none" fill-rule="evenodd">
        <g id="MX-Notifications-03-01-02-02-00-01" transform="translate(0.000000, -80.000000)">
            <g id="Illustration/Abono_remuneraciones" transform="translate(0.000000, 80.000000)">
                <g>
                    <g id="Page-1" fill="#2A86CA">
                        <polygon id="Fill-1" points="0 180 360 180 360 1.20459198e-14 0 1.20459198e-14"></polygon>
                    </g>
                    <g id="Illustration">
                        <mask id="mask-2" fill="white">
                            <use xlink:href="#path-1"></use>
                        </mask>
                        <use id="bg" fill="#004481" xlink:href="#path-1"></use>
                        <g id="ilus2" mask="url(#mask-2)">
                            <polygon id="Fill-1" fill="#1787C8" points="2.77555756e-17 180 360 180 360 0 2.77555756e-17 0"></polygon>
                            <g id="Group" transform="translate(22.000000, 20.000000)">
                                <polygon id="Fill-2" fill="#88CA9A" points="239.010526 32.2471001 210.020039 61.2340192 247.670926 98.888473 276.661412 69.9024458"></polygon>
                                <g id="Group-15" transform="translate(209.597722, 32.108587)">
                                    <g id="Group-5" transform="translate(0.000000, 21.405725)">
                                        <mask id="mask-4" fill="white">
                                            <use xlink:href="#path-3"></use>
                                        </mask>
                                        <g id="Clip-4"></g>
                                        <path d="M4.57966564,0.381467855 C-0.03772759,-4.23770918 -7.54756939,-4.21719536 -12.1943955,0.427846925 C-16.8385459,5.07199731 -16.8608435,12.5836229 -12.2425584,17.2010161 C-7.62694895,21.8201932 -0.114431437,21.7987875 4.53061085,17.155529 C9.17565314,12.5087029 9.19616696,4.99886108 4.57966564,0.381467855" id="Fill-3" fill="#88CA9A" mask="url(#mask-4)"></path>
                                    </g>
                                    <g id="Group-8" transform="translate(0.000000, 21.405725)">
                                        <mask id="mask-6" fill="white">
                                            <use xlink:href="#path-5"></use>
                                        </mask>
                                        <g id="Clip-7"></g>
                                        <path d="M4.57966564,0.381467855 C-0.03772759,-4.23770918 -7.54756939,-4.21719536 -12.1943955,0.427846925 C-16.8385459,5.07199731 -16.8608435,12.5836229 -12.2425584,17.2010161 C-7.62694895,21.8201932 -0.114431437,21.7987875 4.53061085,17.155529 C9.17565314,12.5087029 9.19616696,4.99886108 4.57966564,0.381467855 Z" id="Stroke-6" stroke="#C8E7D0" stroke-width="2.437" mask="url(#mask-6)"></path>
                                    </g>
                                    <g id="Group-11" transform="translate(21.405725, 0.000000)">
                                        <mask id="mask-8" fill="white">
                                            <use xlink:href="#path-7"></use>
                                        </mask>
                                        <g id="Clip-10"></g>
                                        <path d="M17.4932043,-12.5267194 C12.8749192,-17.1450045 5.36507736,-17.1244907 0.720926974,-12.4812322 C-3.92679103,-7.8344061 -3.94908866,-0.324564303 0.670088378,4.29372083 C5.2865897,8.91111406 12.7973234,8.89327596 17.4423657,4.24823367 C22.0882999,-0.397700529 22.1123813,-7.90843423 17.4932043,-12.5267194" id="Fill-9" fill="#88CA9A" mask="url(#mask-8)"></path>
                                    </g>
                                    <g id="Group-14" transform="translate(21.405725, 0.000000)">
                                        <mask id="mask-10" fill="white">
                                            <use xlink:href="#path-9"></use>
                                        </mask>
                                        <g id="Clip-13"></g>
                                        <path d="M17.4932043,-12.5267194 C12.8749192,-17.1450045 5.36507736,-17.1244907 0.720926974,-12.4812322 C-3.92679103,-7.8344061 -3.94908866,-0.324564303 0.670088378,4.29372083 C5.2865897,8.91111406 12.7973234,8.89327596 17.4423657,4.24823367 C22.0882999,-0.397700529 22.1123813,-7.90843423 17.4932043,-12.5267194 Z" id="Stroke-12" stroke="#C8E7D0" stroke-width="2.437" mask="url(#mask-10)"></path>
                                    </g>
                                </g>
                                <g id="Group-28">
                                    <path d="M281.955226,111.160643 C285.465765,112.090008 280.767209,113.849737 279.837844,117.364735 C278.907586,120.874382 278.585609,123.878319 278.585609,123.878319 L248.84503,116.002796 C245.333599,115.076106 243.240297,111.473701 244.169663,107.956919 C245.09992,104.445488 248.703217,102.353079 252.214648,103.282444 L281.955226,111.160643 Z" id="Fill-16" fill="#EAA271"></path>
                                    <path d="M285.060394,111.109269 C287.501539,113.801039 282.601412,112.720942 279.910534,115.165654 C277.220548,117.605906 275.317222,119.952509 275.317222,119.952509 L254.639292,97.1714663 C252.196363,94.483264 252.399718,90.3225262 255.089704,87.8760303 C257.77969,85.4357776 261.94132,85.639132 264.383356,88.3273343 L285.060394,111.109269 Z" id="Fill-18" fill="#EAA271"></path>
                                    <path d="M283.895834,73.2363875 C280.262212,73.2363875 277.316249,76.1823504 277.316249,79.8141883 L277.316249,110.58135 C277.316249,111.047817 277.367088,111.495553 277.458954,111.933478 C277.409007,111.93883 277.36352,111.958452 277.316249,111.965587 C270.555608,112.771869 255.695575,120.621527 256.750699,137.408967 C257.363438,147.153031 265.484235,150.21405 265.484235,150.21405 L290.474527,150.21405 L290.474527,110.58135 L290.474527,98.549549 L290.474527,79.8141883 C290.474527,76.1823504 287.529456,73.2363875 283.895834,73.2363875" id="Fill-20" fill="#FAB27F"></path>
                                    <path d="M231.147133,67.1829377 C231.147133,73.2621635 236.075801,78.1926155 242.156811,78.1926155 C248.236037,78.1926155 253.164705,73.2621635 253.164705,67.1829377 C253.164705,61.1028199 248.236037,56.1732599 242.156811,56.1732599 C236.075801,56.1732599 231.147133,61.1028199 231.147133,67.1829377" id="Fill-22" fill="#36824B"></path>
                                    <path d="M285.356507,108.152246 L280.847034,112.603745 L280.387703,112.489581 C278.358619,112.489581 278.006316,111.67884 278.006316,109.46959 L278.006316,78.4972903 C278.006316,76.2853654 279.652773,74.492636 281.680966,74.492636 C283.71005,74.492636 285.356507,76.2853654 285.356507,78.4972903 L285.356507,108.152246 Z" id="Fill-24" fill="#DD915E"></path>
                                    <mask id="mask-12" fill="white">
                                        <use xlink:href="#path-11"></use>
                                    </mask>
                                    <g id="Clip-27"></g>
                                    <polygon id="Fill-26" fill="#875630" mask="url(#mask-12)" points="222.509834 112.603924 280.846678 112.603924 280.846678 63.0059673 222.509834 63.0059673"></polygon>
                                </g>
                                <g id="Group-31" transform="translate(222.084395, 62.433364)">
                                    <mask id="mask-14" fill="white">
                                        <use xlink:href="#path-13"></use>
                                    </mask>
                                    <g id="Clip-30"></g>
                                    <path d="M-6.23896608,54.4802454 L59.0574137,-10.8161344 C59.0574137,-10.8161344 66.6502027,57.1381229 65.5103479,56.7590632 C64.3722768,56.3791116 -6.23896608,54.4802454 -6.23896608,54.4802454" id="Fill-29" fill="#734620" mask="url(#mask-14)"></path>
                                </g>
                                <g id="Group-58">
                                    <polygon id="Stroke-32" stroke="#BA9A3D" points="226.749416 107.477163 226.749416 108.815021 228.087274 108.815021"></polygon>
                                    <path d="M232.53904,108.815021 L273.044023,108.815021" id="Stroke-34" stroke="#BA9A3D" stroke-dasharray="2.994,4.991"></path>
                                    <polyline id="Stroke-36" stroke="#BA9A3D" points="275.269416 108.815021 276.607274 108.815021 276.607274 107.477163"></polyline>
                                    <path d="M276.607274,103.106471 L276.607274,70.3262792" id="Stroke-38" stroke="#BA9A3D" stroke-dasharray="2.94,4.9"></path>
                                    <polyline id="Stroke-40" stroke="#BA9A3D" points="276.607274 68.1410223 276.607274 66.8031645 275.269416 66.8031645"></polyline>
                                    <path d="M270.817739,66.8031645 L230.312756,66.8031645" id="Stroke-42" stroke="#BA9A3D" stroke-dasharray="2.994,4.991"></path>
                                    <polyline id="Stroke-44" stroke="#BA9A3D" points="228.087274 66.8031645 226.749416 66.8031645 226.749416 68.1410223"></polyline>
                                    <path d="M226.749416,72.5117145 L226.749416,105.291906" id="Stroke-46" stroke="#BA9A3D" stroke-dasharray="2.94,4.9"></path>
                                    <mask id="mask-16" fill="white">
                                        <use xlink:href="#path-15"></use>
                                    </mask>
                                    <g id="Clip-49"></g>
                                    <polygon id="Fill-48" fill="#2DCCCD" mask="url(#mask-16)" points="260.375669 160.541152 291.705623 160.541152 291.705623 150.213782 260.375669 150.213782"></polygon>
                                    <path d="M278.006138,123.533241 C278.006138,127.166863 275.061959,130.113717 271.427445,130.113717 C267.794715,130.113717 264.848752,127.166863 264.848752,123.533241 L264.848752,92.7678627 C264.848752,89.1378086 267.794715,86.18917 271.427445,86.18917 C275.061959,86.18917 278.006138,89.1378086 278.006138,92.7678627 L278.006138,123.533241 Z" id="Fill-50" fill="#FAB27F" mask="url(#mask-16)"></path>
                                    <polygon id="Fill-51" fill="#5F370E" mask="url(#mask-16)" points="222.288641 96.4149523 236.461907 96.4149523 236.461907 84.7720218 222.288641 84.7720218"></polygon>
                                    <polygon id="Fill-52" fill="#875630" mask="url(#mask-16)" points="219.251704 94.8960377 234.437282 94.8960377 234.437282 83.2531072 219.251704 83.2531072"></polygon>
                                    <path d="M210.603702,35.2302555 C210.603702,35.2302555 165.420411,-0.70817273 114.088435,20.6975521 C68.5485575,39.6879977 62.1442084,84.9147266 62.1442084,81.3471058" id="Stroke-53" stroke="#FFFFFF" stroke-dasharray="3,5" mask="url(#mask-16)"></path>
                                    <path d="M211.7465,40.1679318 C211.7465,43.1228138 214.142158,45.5193631 217.097932,45.5193631 C220.052814,45.5193631 222.449363,43.1228138 222.449363,40.1679318 C222.449363,37.2130499 220.052814,34.8165006 217.097932,34.8165006 C214.142158,34.8165006 211.7465,37.2130499 211.7465,40.1679318" id="Fill-54" fill="#F4F5F5" mask="url(#mask-16)"></path>
                                    <path d="M34.2224918,102.753723 C34.2224918,102.753723 35.5594577,89.1887363 50.1510268,91.8269919 C53.187964,87.1560844 58.4493128,84.064741 64.4348886,84.064741 C72.0874352,84.064741 78.5617751,89.1129244 80.707699,96.0617578 C82.4567251,95.0423102 84.4831337,94.4474094 86.6549229,94.4474094 C91.9617588,94.4474094 96.2090114,99.334158 96.2090114,102.753723 L34.2224918,102.753723 Z" id="Fill-55" fill="#F4F5F5" mask="url(#mask-16)"></path>
                                    <path d="M21,38.0999137 C21,38.0999137 21.7024706,30.9742248 29.3678803,32.3600478 C30.9625326,29.9060578 33.7268254,28.2819929 36.8710307,28.2819929 C40.8907506,28.2819929 44.292316,30.9340276 45.4197984,34.5841294 C46.3384514,34.0488203 47.4026968,33.7370469 48.5434149,33.7370469 C51.3317279,33.7370469 53.5626724,36.3032949 53.5626724,38.0999137 L21,38.0999137 Z" id="Fill-56" fill="#F4F5F5" opacity="0.200000018" mask="url(#mask-16)"></path>
                                </g>
                            </g>
                        </g>
                    </g>
                </g>
            </g>
        </g>
    </g>
</svg>