<?xml version="1.0" encoding="UTF-8" standalone="no"?>
<svg width="360px" height="180px" viewBox="0 0 360 180" version="1.1" xmlns="http://www.w3.org/2000/svg" xmlns:xlink="http://www.w3.org/1999/xlink">
    <!-- Generator: Sketch 49 (51002) - http://www.bohemiancoding.com/sketch -->
    <title>Illustration/One-Click</title>
    <desc>Created with Sketch.</desc>
    <defs>
        <polygon id="path-1" points="0 142.799888 285.622835 142.799888 285.622835 0.0307444517 0 0.0307444517"></polygon>
        <polygon id="path-3" points="0.3291622 74.2599869 54.9842059 74.2599869 54.9842059 0.020226613 0.3291622 0.020226613"></polygon>
        <polygon id="path-5" points="0 142.799888 285.622835 142.799888 285.622835 0.0307444517 0 0.0307444517"></polygon>
        <polygon id="path-7" points="3.30816079 6.31596217 1.12826798 4.09831632 0.171035261 5.10236539 3.3214725 8.30909261 10.0680874 1.34466523 9.09431594 0.355988388"></polygon>
        <path d="M6.73395205,0.0880169492 L6.65771509,21.5811864 C6.65771509,21.5811864 0.450380818,24.4815254 0.447334274,26.8530508 C0.446318759,27.910678 -0.288406206,32.080678 7.89359661,50.0730508 L26.5333709,50.9572881 C34.028378,50.9654237 38.9053879,47.6079661 40.6048519,45.2913559 C42.4992948,42.6976271 42.7780536,37.8213559 42.7800846,37.4888136 L43.1212976,22.6820339 L43.1212976,22.6733898 L43.1212976,22.670339 L43.2695628,16.2010169 C43.2715938,14.1081356 41.0633568,11.6283051 38.3341608,11.6267797 C36.7570663,11.6252542 35.3551481,12.1932203 34.4493089,13.0744068 C34.0730606,11.2677966 32.0410155,9.88423729 29.5794076,9.88169492 C27.9759097,9.88067797 26.5506347,10.4730508 25.6473343,11.3832203 C25.1588717,9.68542373 23.1897884,8.41067797 20.8312553,8.40864407 C19.0490268,8.40610169 17.4897038,9.13271186 16.6204231,10.2188136 L16.6303736,0.0880169492 L6.73395205,0.0880169492 Z" id="path-9"></path>
        <polygon id="path-11" points="7.44400179 0.193815789 0.353605263 0.193815789 0.353605263 9.47305263 7.44400179 9.47305263"></polygon>
        <polygon id="path-13" points="4.49822642e-16 9.47305263 4.49822642e-16 0.193815789 7.09032846 0.193815789 7.09032846 9.47305263"></polygon>
        <polygon id="path-15" points="0.133894737 9.47368421 8.22481579 9.47368421 8.22481579 0.193815789 0.133894737 0.193815789"></polygon>
    </defs>
    <g id="MX_Notifications" stroke="none" stroke-width="1" fill="none" fill-rule="evenodd">
        <g id="MX-Notifications-03-03-02-02-00-01" transform="translate(0.000000, -80.000000)">
            <g id="Illustration/One-Click" transform="translate(0.000000, 80.000000)">
                <g id="Page-1">
                    <g>
                        <polygon id="BG" fill="#5BBEFF" points="0 180 360 180 360 1.02140518e-13 0 1.02140518e-13"></polygon>
                        <path d="M308.521728,44.2675563 L296.940335,44.3046615 C296.23436,43.219531 295.824807,41.9390061 295.820077,40.5542707 C295.816135,36.7415115 298.892707,33.6349359 302.704031,33.624278 C303.932294,33.6191464 305.08054,33.9436197 306.084121,34.4978297 C306.422722,28.0577049 311.735081,22.9371839 318.251265,22.9190261 C324.104834,22.907184 329.005275,27.007706 330.219349,32.5071739 C331.485848,31.6640169 333.008564,31.174149 334.643227,31.1686227 C339.111648,31.1567806 342.738495,34.7698031 342.752292,39.24493 C342.755051,41.1013754 342.132641,42.813742 341.084517,44.1874248 L328.279985,44.2162405 L308.521728,44.2675563 Z" id="Fill-2" fill-opacity="0.300000012" fill="#FFFFFF"></path>
                        <path d="M47.0866367,152.455274 L54.9275028,152.480288 C55.4054318,151.745706 55.6826972,150.878549 55.6864441,149.940935 C55.6893583,147.359058 53.6061208,145.256202 51.0253876,145.248698 C50.1940077,145.245363 49.4167486,145.465071 48.7373234,145.840283 C48.5079342,141.4799 44.9105611,138.012522 40.498877,138.000015 C36.5355635,137.992511 33.2179537,140.769081 32.3953164,144.49202 C31.538125,143.921698 30.5069141,143.589843 29.399934,143.586508 C26.3741607,143.57817 23.9187381,146.024137 23.9099955,149.055018 C23.9079139,150.311562 24.3292241,151.470967 25.0386239,152.40066 L33.7079558,152.420254" id="Fill-4" fill-opacity="0.300000012" fill="#FFFFFF"></path>
                        <g id="Mobile" transform="translate(37.000000, 28.000000)">
                            <g id="Group-12" transform="translate(0.000000, 0.373788)">
                                <path d="M120.267437,101.785656 C120.267437,104.330569 122.382385,106.391256 124.136303,106.391256 L169.164966,106.391256 C172.635288,106.391256 174.749429,104.330569 174.749429,101.785656 L174.749429,9.40343328 C174.749429,6.86135256 172.635288,4.80066523 170.022563,4.80066523 L124.993496,4.80066523 C122.382385,4.80066523 120.267437,6.86135256 120.267437,9.40343328 L120.267437,101.785656 Z" id="Fill-6" fill="#2A86CA"></path>
                                <path d="M116.940721,101.779346 C116.940721,104.323854 119.062123,106.384541 121.680495,106.384541 L166.824123,106.384541 C169.442898,106.384541 171.562283,104.323854 171.562283,101.779346 L171.562283,9.40197696 C171.562283,6.85949171 169.442898,4.79516359 166.824123,4.79516359 L121.680495,4.79516359 C119.062123,4.79516359 116.940721,6.85949171 116.940721,9.40197696 L116.940721,101.779346 Z" id="Fill-8" fill="#2A86CA"></path>
                                <mask id="mask-2" fill="white">
                                    <use xlink:href="#path-1"></use>
                                </mask>
                                <g id="Clip-11"></g>
                                <polygon id="Fill-10" fill="#D0EFF0" mask="url(#mask-2)" points="116.907441 92.0590018 171.562082 92.0590018 171.562082 17.8192415 116.907441 17.8192415"></polygon>
                            </g>
                            <g id="Group-15" transform="translate(116.578279, 18.173207)">
                                <mask id="mask-4" fill="white">
                                    <use xlink:href="#path-3"></use>
                                </mask>
                                <g id="Clip-14"></g>
                                <polygon id="Fill-13" fill-opacity="0.300000012" fill="#D3D3D3" mask="url(#mask-4)" points="65.524859 82.5000663 -14.5337616 -1.49337129 -14.5337616 83.0122041"></polygon>
                            </g>
                            <g id="Group-29" transform="translate(0.000000, 0.373788)">
                                <path d="M140.833782,99.5705995 C140.833782,97.2364484 142.63651,95.3480918 144.853917,95.3480918 C147.075762,95.3480918 148.878893,97.2364484 148.878893,99.5705995 C148.878893,101.900301 147.075762,103.784208 144.853917,103.784208 C142.63651,103.784208 140.833782,101.900301 140.833782,99.5705995 Z" id="Fill-16" fill="#004481"></path>
                                <path d="M138.044374,8.70136754 C138.044374,9.4218395 138.600239,10.0047705 139.28559,10.0047705 L150.459356,10.0047705 C151.145917,10.0047705 151.700572,9.4218395 151.700572,8.70136754 C151.700572,7.98332278 151.145917,7.39998726 150.459356,7.39998726 L139.28559,7.39998726 C138.600239,7.39998726 138.044374,7.98332278 138.044374,8.70136754" id="Fill-18" fill="#004481"></path>
                                <path d="M137.715817,4.79512314 L167.925727,4.79512314 C169.810342,4.79512314 171.562243,7.35823954 171.562243,9.25428224 L171.562243,41.1860361 L137.715817,4.79512314 Z" id="Fill-20" fill-opacity="0.3" fill="#FFFFFF"></path>
                                <path d="M171.562364,72.5664935 L171.562364,102.860296 C171.562364,104.750271 169.008937,106.508368 167.117464,106.508368 L135.278282,106.508368 L171.562364,72.5664935 Z" id="Fill-22" fill-opacity="0.3" fill="#FFFFFF"></path>
                                <mask id="mask-6" fill="white">
                                    <use xlink:href="#path-5"></use>
                                </mask>
                                <g id="Clip-27"></g>
                                <polygon id="Fill-26" fill="#36824B" mask="url(#mask-6)" points="126.446691 83.0310553 163.001444 83.0310553 163.001444 70.9294728 126.446691 70.9294728"></polygon>
                                <polygon id="Fill-28" fill="#5ECA98" mask="url(#mask-6)" points="126.446691 80.7725517 163.001444 80.7725517 163.001444 68.6705647 126.446691 68.6705647"></polygon>
                            </g>
                            <g id="Group-32" transform="translate(140.377997, 70.762401)">
                                <mask id="mask-8" fill="white">
                                    <use xlink:href="#path-7"></use>
                                </mask>
                                <g id="Clip-31"></g>
                                <polygon id="Fill-30" fill="#FFFFFF" mask="url(#mask-8)" points="-0.125856135 8.61046915 10.3629619 8.61046915 10.3629619 0.0554209196 -0.125856135 0.0554209196"></polygon>
                            </g>
                        </g>
                        <g id="Hand" transform="translate(159.000000, 102.000000)">
                            <path d="M44.2135515,27.9082881 L44.0647786,34.3776102 L44.0647786,34.380661 L44.0647786,34.3893051 L43.7235656,49.1960847 C43.7215346,49.5286271 43.4427757,54.4048983 41.5488406,56.9986271 C39.8488688,59.3152373 34.971859,62.6721864 27.4768519,62.6645593 L8.83707757,61.7798136 C0.655074753,43.7874407 1.38979972,39.6174407 1.39081523,38.5598136 C1.39436953,36.1882881 7.60170381,33.2884576 7.60170381,33.2884576 L7.7007165,5.37422034 C7.70274753,2.64015254 9.91809309,0.42879661 12.6462736,0.430322034 C15.3749619,0.432864407 17.5831989,2.65032203 17.5806601,5.38337288 L17.5644118,21.9260847 C18.4331848,20.8399831 19.9930155,20.1128644 21.7747362,20.1159153 C24.1332694,20.1179492 26.1028604,21.3926949 26.5908152,23.0899831 C27.4941157,22.1798136 28.9193907,21.5879492 30.5228886,21.5889661 C32.9850042,21.591 35.0165416,22.9750678 35.3932976,24.7821864 C36.2986291,23.9004915 37.701055,23.3325254 39.2776417,23.3340508 C42.0068378,23.3355763 44.2150748,25.8154068 44.2135515,27.9082881" id="Fill-33" fill="#FAB27F"></path>
                            <g id="Group-37" transform="translate(0.943583, 11.707119)">
                                <mask id="mask-10" fill="white">
                                    <use xlink:href="#path-9"></use>
                                </mask>
                                <g id="Clip-36"></g>
                                <path d="M-1.57831312,56.2053051 L54.4593173,0.0880169492 L66.0834076,47.3410678 C66.0834076,47.3410678 39.4104034,68.8688644 37.5667362,69.5019153 C35.7251001,70.1354746 12.0813766,66.3356441 12.0813766,66.3356441 L-1.57831312,56.2053051 Z" id="Fill-35" fill-opacity="0.049999997" fill="#A28E58" mask="url(#mask-10)"></path>
                            </g>
                            <path d="M15.3665839,7.27037288 L9.69544147,7.26325424 L9.69798025,4.73664407 C9.70051904,3.1700339 10.9699126,1.90138983 12.5343131,1.90240678 C14.102268,1.90291525 15.370646,3.17613559 15.3701382,4.74376271 L15.3665839,7.27037288 Z" id="Fill-38" fill="#FFDDC7"></path>
                            <polygon id="Fill-40" fill="#004481" points="6.76959097 78 41.2275317 78 41.2275317 60.3152542 6.76959097 60.3152542"></polygon>
                        </g>
                        <g id="Logos" transform="translate(83.909438, 49.704746)">
                            <path d="M129.881131,21.7558664 C168.325228,36.2348801 194.365034,53.8234893 191.186851,64.5946961 C187.333659,77.6521076 141.995648,75.7457332 89.9215518,60.3358377 C37.8478799,44.9255173 -1.24280034,21.8476374 2.610816,8.78937613 C5.52934807,-1.10108313 32.2488295,-2.40627196 67.6683282,4.23863472" id="Stroke-42" stroke="#FFFFFF" stroke-linecap="round" stroke-linejoin="round" stroke-dasharray="1,3"></path>
                            <g id="Group" transform="translate(0.000000, 7.000000)">
                                <circle id="Oval" fill="#FFFFFF" cx="17.5" cy="17.5" r="13.5"></circle>
                                <path d="M22.3706595,26 L16.4992936,22.2704632 L10.6279277,26 L12.1861848,18.9698968 L7,14.239429 L13.8306194,13.6306153 L16.4992936,7 L19.1693806,13.6306153 L26,14.239429 L20.8124024,18.9698968 L22.3706595,26 Z M17.5,0 C7.835625,0 0,7.83416667 0,17.5 C0,27.164375 7.835625,35 17.5,35 C27.164375,35 35,27.164375 35,17.5 C35,7.83416667 27.164375,0 17.5,0 L17.5,0 Z" id="icon-promotion" fill="#004481"></path>
                            </g>
                            <g id="Group" transform="translate(164.000000, 33.000000)">
                                <circle id="Oval" fill="#FFFFFF" cx="10.5" cy="10.5" r="8.5"></circle>
                                <path d="M14.7007191,17.0857143 L10.842393,14.6348758 L6.98406679,17.0857143 L8.00806433,12.4659322 L4.6,9.35733904 L9.08869273,8.95726145 L10.842393,4.6 L12.5970216,8.95726145 L17.0857143,9.35733904 L13.6767216,12.4659322 L14.7007191,17.0857143 Z M11.5,0 C5.149125,0 0,5.14816667 0,11.5 C0,17.850875 5.149125,23 11.5,23 C17.850875,23 23,17.850875 23,11.5 C23,5.14816667 17.850875,0 11.5,0 L11.5,0 Z" id="icon-promotion" fill="#004481"></path>
                            </g>
                        </g>
                    </g>
                    <g transform="translate(167.000000, 74.000000)">
                        <path d="M27.0806053,1.34064474 C26.8327105,0.577618421 26.6917895,0.399592105 25.9635,0.399592105 L24.1915263,0.399592105 L21.3525789,9.67393421 L22.7945526,9.67393421 L23.3996842,7.67103947 L26.7825789,7.67103947 L27.3924474,9.67393421 L29.9029737,9.67393421 L27.0806053,1.34064474 Z M23.8117895,6.31196053 L25.0761316,2.08235526 L26.3621842,6.31196053 L23.8117895,6.31196053 Z" id="Fill-1" fill="#2A85C9"></path>
                        <g id="Group-5" transform="translate(7.500000, 0.201118)">
                            <mask id="mask-12" fill="white">
                                <use xlink:href="#path-11"></use>
                            </mask>
                            <g id="Clip-4"></g>
                            <path d="M5.54123684,3.83502632 L5.98531579,3.16042105 C6.94965789,1.73739474 6.28492105,0.193578947 4.38978947,0.193578947 L0.353605263,0.193578947 L0.353605263,9.47305263 L4.24886842,9.47305263 C7.67439474,9.47305263 8.71057895,5.48581579 5.54123684,3.83502632 Z M2.53571053,8.23042105 L2.53571053,1.407 L3.72702632,1.407 C4.299,1.407 4.79676316,1.88147368 4.79676316,2.44831579 C4.79676316,2.64844737 4.75334211,2.83160526 4.56071053,3.12213158 L3.79255263,4.28107895 C4.59584211,4.47410526 5.13426316,5.09147368 5.13426316,6.24765789 C5.13426316,7.63831579 4.299,8.23042105 3.19610526,8.23042105 L2.53571053,8.23042105 Z" id="Fill-3" fill="#2A85C9" mask="url(#mask-12)"></path>
                        </g>
                        <g id="Group-8" transform="translate(0.000000, 0.201118)">
                            <mask id="mask-14" fill="white">
                                <use xlink:href="#path-13"></use>
                            </mask>
                            <g id="Clip-7"></g>
                            <path d="M5.18273684,3.83502632 L5.63786842,3.16042105 C6.59036842,1.73739474 5.93589474,0.193578947 4.04392105,0.193578947 L-0.000157894737,0.193578947 L-0.000157894737,9.47305263 L3.90142105,9.47305263 C7.32260526,9.47305263 8.35681579,5.48581579 5.18273684,3.83502632 M2.84668421,8.23042105 L2.18352632,8.23042105 L2.18352632,1.407 L3.37563158,1.407 C3.94839474,1.407 4.44813158,1.88147368 4.44813158,2.44831579 C4.44813158,2.64844737 4.40273684,2.83160526 4.21168421,3.12213158 L3.43957895,4.28107895 C4.2405,4.47410526 4.78405263,5.09147368 4.78405263,6.24765789 C4.78405263,7.63831579 3.94839474,8.23042105 2.84668421,8.23042105" id="Fill-6" fill="#2A85C9" mask="url(#mask-14)"></path>
                        </g>
                        <g id="Group-11" transform="translate(14.210526, 0.201118)">
                            <mask id="mask-16" fill="white">
                                <use xlink:href="#path-15"></use>
                            </mask>
                            <g id="Clip-10"></g>
                            <path d="M2.90376316,1.40530263 C2.57336842,0.359644737 2.40639474,0.193460526 1.77165789,0.193460526 L0.133894737,0.193460526 L3.16626316,9.47372368 L5.3985,9.47372368 L8.22481579,0.193460526 L6.75284211,0.193460526 L4.66547368,7.23911842 L2.90376316,1.40530263 Z" id="Fill-9" fill="#2A85C9" mask="url(#mask-16)"></path>
                        </g>
                    </g>
                </g>
            </g>
        </g>
    </g>
</svg>