<?xml version="1.0" encoding="UTF-8"?>
<svg width="33px" height="60px" viewBox="0 0 33 60" version="1.1" xmlns="http://www.w3.org/2000/svg" xmlns:xlink="http://www.w3.org/1999/xlink">
    <!-- Generator: Sketch 47.1 (45422) - http://www.bohemiancoding.com/sketch -->
    <title>ico movil</title>
    <desc>Created with Sketch.</desc>
    <defs></defs>
    <g id="Symbols" stroke="none" stroke-width="1" fill="none" fill-rule="evenodd">
        <g id="Avatars/Big/Cellphone" transform="translate(-14.000000, 0.000000)">
            <g id="ico-movil" transform="translate(14.000000, 0.000000)">
                <path d="M32.3378155,57.0786804 C32.3378155,58.5041994 31.0819,59.6615448 29.5307556,59.6615448 L2.86129979,59.6615448 C1.31083724,59.6615448 0.0535580268,58.5041994 0.0535580268,57.0786804 L0.0535580268,4.91755052 C0.0535580268,3.49067707 1.31083724,2.3346861 2.86129979,2.3346861 L29.5307556,2.3346861 C31.0819,2.3346861 32.3378155,3.49067707 32.3378155,4.91755052 L32.3378155,57.0786804 Z" id="Fill-4" fill="#004481"></path>
                <path d="M32.3378155,54.8847217 C32.3378155,56.3102408 31.0819,57.4675862 29.5307556,57.4675862 L2.86129979,57.4675862 C1.31083724,57.4675862 0.0535580268,56.3102408 0.0535580268,54.8847217 L0.0535580268,2.72359185 C0.0535580268,1.2967184 1.31083724,0.140727431 2.86129979,0.140727431 L29.5307556,0.140727431 C31.0819,0.140727431 32.3378155,1.2967184 32.3378155,2.72359185 L32.3378155,54.8847217 Z" id="Fill-4" fill="#49A5E6"></path>
                <polygon id="Fill-6" fill="#004481" points="0.0536943911 48.9381064 32.3379519 48.9381064 32.3379519 7.07728276 0.0536943911 7.07728276"></polygon>
                <path d="M18.5788582,53.1619769 C18.5788582,54.4696621 17.5118072,55.5281353 16.1965732,55.5281353 C14.8806573,55.5281353 13.8142881,54.4696621 13.8142881,53.1619769 C13.8142881,51.8556462 14.8806573,50.7964957 16.1965732,50.7964957 C17.5118072,50.7964957 18.5788582,51.8556462 18.5788582,53.1619769" id="Fill-8" fill="#072146"></path>
                <path d="M20.3725947,0.140795151 L2.2777286,0.140795151 C1.02044938,0.140795151 0.001125938,1.19655961 0.001125938,2.49814991 L0.001125938,20.4095765 L20.3725947,0.140795151 Z" id="Fill-9" fill="#FFFFFF" opacity="0.300000012"></path>
            </g>
        </g>
    </g>
</svg>