<svg xmlns="http://www.w3.org/2000/svg" viewBox="0 0 123 38"><title>BBVA</title><path fill="#FFF" fill-rule="evenodd" d="M48.087 37.863H32.13V.048h16.542c7.748 0 10.45 6.29 6.525 12.088L53.34 14.88c13.008 6.717 8.78 22.983-5.253 22.983M46.19 16.687l3.17-4.703c.804-1.184.97-1.925.97-2.75 0-2.31-2.044-4.25-4.395-4.25h-4.867V32.79h2.695c4.517 0 7.947-2.428 7.947-8.115 0-4.688-2.213-7.19-5.52-7.988M15.958 37.863H0V.048h16.536c7.75 0 10.45 6.29 6.53 12.088L21.21 14.88c13.004 6.716 8.775 22.982-5.25 22.982m-1.9-21.175l3.17-4.703c.797-1.184.97-1.925.97-2.75 0-2.31-2.04-4.25-4.393-4.25h-4.87V32.79h2.696c4.518 0 7.94-2.428 7.94-8.115 0-4.688-2.205-7.19-5.512-7.988M85.83.047h5.995l-11.578 37.8-9.11-.005L58.71.056l6.71-.008c2.592 0 3.273.667 4.634 4.95L77.24 28.76 85.827.05zm25.03 3.863c-1.073-3.154-1.787-3.847-4.6-3.847L99.008.055l-11.627 37.8h5.92l2.5-8.16h13.82l2.5 8.154h10.267L110.86 3.91zm-13.4 20.25l5.185-17.243 5.26 17.243H97.46z"/></svg>
