<svg xmlns="http://www.w3.org/2000/svg" id="Capa_1" data-name="Capa 1" viewBox="0 0 512 48"><defs><style>.cls-1{fill:#fff;}</style></defs><title>Ic_logog</title><path class="cls-1" d="M194.85 46.75V.92h14.34a27.47 27.47 0 0 1 6.83.73 13.6 13.6 0 0 1 5.44 2.52 8.8 8.8 0 0 1 2.47 3 11.71 11.71 0 0 1 1.26 5.6 10.37 10.37 0 0 1-1.56 5.8 10.36 10.36 0 0 1-4 3.46 11.2 11.2 0 0 1-1.06.5 17.22 17.22 0 0 1 2.36.88 11.11 11.11 0 0 1 3.91 2.72 9.4 9.4 0 0 1 1.78 2.76 12.67 12.67 0 0 1 .91 5 12.41 12.41 0 0 1-1.64 6.44 11.21 11.21 0 0 1-4.52 4.21A16.42 16.42 0 0 1 217.1 46a29.3 29.3 0 0 1-6.81.73zm15.35-4.4a19.73 19.73 0 0 0 5.4-.66 10 10 0 0 0 3.93-2 6.93 6.93 0 0 0 1.63-2.09 8.48 8.48 0 0 0 .87-4 8.39 8.39 0 0 0-1.06-4.4 7.09 7.09 0 0 0-3-2.74 12.93 12.93 0 0 0-3.09-1 24.77 24.77 0 0 0-5.44-.52h-9.22v17.41zM209 20.57a20.74 20.74 0 0 0 4.81-.51 9.42 9.42 0 0 0 3.61-1.69 5.8 5.8 0 0 0 1.58-1.85 7.64 7.64 0 0 0 .82-3.69 7.41 7.41 0 0 0-1-4A6.39 6.39 0 0 0 216 6.54a10.22 10.22 0 0 0-2.64-.87 22.85 22.85 0 0 0-4.26-.37h-9v15.27zM260.22 17.35a7.38 7.38 0 0 0-1.9-2.53 10.24 10.24 0 0 0-4.32-2.24 22.55 22.55 0 0 0-5.68-.64 27.14 27.14 0 0 0-13.67 3.31c1.92 3.75 3.94 2.84 6.57 1.79A18.37 18.37 0 0 1 248 15.9a20.26 20.26 0 0 1 3.55.47 8.05 8.05 0 0 1 1.88.71 5.09 5.09 0 0 1 1.9 1.92 6.48 6.48 0 0 1 .7 3.21v4.9a41 41 0 0 0-8.45-.8 27.91 27.91 0 0 0-6 .59 18.07 18.07 0 0 0-3.71 1.28 10.4 10.4 0 0 0-4 3.41 9.25 9.25 0 0 0-1.44 5.18 10.8 10.8 0 0 0 .89 4.43 9.62 9.62 0 0 0 4.45 4.42 15.37 15.37 0 0 0 6.94 1.49 18.46 18.46 0 0 0 7.49-1.41 16.62 16.62 0 0 0 3.8-2.37 9.41 9.41 0 0 0 .12 1.16 2.59 2.59 0 0 0 .34 1 2.07 2.07 0 0 0 .49.63 2.8 2.8 0 0 0 1.08.49 5.39 5.39 0 0 0 1.3.12h1.79V22a10.94 10.94 0 0 0-.92-4.63M256 38.18a15.72 15.72 0 0 1-4.29 3.4 13.76 13.76 0 0 1-6.49 1.4 12 12 0 0 1-3.1-.37 6.8 6.8 0 0 1-1.85-.77 5.1 5.1 0 0 1-1.9-2 7 7 0 0 1-.74-3.35 5.16 5.16 0 0 1 .74-2.85 6.46 6.46 0 0 1 1.39-1.55 9.12 9.12 0 0 1 3.37-1.45 19.66 19.66 0 0 1 4.62-.48A41 41 0 0 1 256 31zM294.37 46.75V21.86a7.07 7.07 0 0 0-.61-3.21 4 4 0 0 0-1.51-1.65 6.55 6.55 0 0 0-1.49-.57 12.84 12.84 0 0 0-2.61-.23 18.42 18.42 0 0 0-7.24 1.63 35.84 35.84 0 0 0-6.16 3.53v25.39h-5.13V12.3h2.44l.75.06a2.08 2.08 0 0 1 .76.23 1.69 1.69 0 0 1 .44.33 1.81 1.81 0 0 1 .41.61 5.17 5.17 0 0 1 .26 1 15.07 15.07 0 0 1 .08 1.82v.37a29.08 29.08 0 0 1 5.74-3.07 24.37 24.37 0 0 1 9-1.74 15 15 0 0 1 4.2.54 7.7 7.7 0 0 1 3.48 2.06 8.35 8.35 0 0 1 1.56 2.38 11.93 11.93 0 0 1 .81 4.59v25.27zM345.93 44.34a15.25 15.25 0 0 1-6.06-7.59 20.39 20.39 0 0 1-1.25-7.26 19 19 0 0 1 2.74-10.26 15.44 15.44 0 0 1 7.55-6.11 20.45 20.45 0 0 1 7.09-1.18 18 18 0 0 1 10 2.73 15.14 15.14 0 0 1 6.09 7.58 20.79 20.79 0 0 1 1.21 7.24 18.63 18.63 0 0 1-2.74 10.26 15.08 15.08 0 0 1-7.52 6.05A20.42 20.42 0 0 1 356 47a18.73 18.73 0 0 1-10-2.69M348.8 18a11.07 11.07 0 0 0-4.16 5.7 17.8 17.8 0 0 0-.86 5.78 16 16 0 0 0 1.88 8.1 10.24 10.24 0 0 0 5.19 4.42 13.9 13.9 0 0 0 5.13.89 12.51 12.51 0 0 0 7.15-2 11 11 0 0 0 4.16-5.67 18.52 18.52 0 0 0 .84-5.8 15.56 15.56 0 0 0-1.91-8 10.16 10.16 0 0 0-5.16-4.55A13.62 13.62 0 0 0 356 16a12.18 12.18 0 0 0-7.17 2M425.07 46.75V21.64a7.79 7.79 0 0 0-.5-3 3.64 3.64 0 0 0-1.33-1.64 5.43 5.43 0 0 0-1.39-.57 11.26 11.26 0 0 0-2.53-.24 15.36 15.36 0 0 0-6.52 1.53 32.28 32.28 0 0 0-5.39 3.28v25.75h-5.14V21.64a7.32 7.32 0 0 0-.55-3 3.77 3.77 0 0 0-1.34-1.64 5.08 5.08 0 0 0-1.36-.57 10.47 10.47 0 0 0-2.39-.24A15.61 15.61 0 0 0 390 17.7a30.55 30.55 0 0 0-5.43 3.37v25.68h-5.11V12.3h2.42l.77.06a2.11 2.11 0 0 1 .78.23 1.43 1.43 0 0 1 .44.33 1.72 1.72 0 0 1 .42.61 4.87 4.87 0 0 1 .2 1 13.13 13.13 0 0 1 .08 1.82v.07a33.33 33.33 0 0 1 4.92-2.72 21 21 0 0 1 8.37-1.78 12.27 12.27 0 0 1 4.4.72 8.16 8.16 0 0 1 3.54 2.52 7.71 7.71 0 0 1 .94 1.61 28.08 28.08 0 0 1 5.57-3.16 21.64 21.64 0 0 1 8.28-1.7 13.51 13.51 0 0 1 4.1.58 8.22 8.22 0 0 1 3.31 2 7.14 7.14 0 0 1 1.48 2.21 10.51 10.51 0 0 1 .73 4v26zM145.89 30.14l6.76-20.91 6.85 20.91zm17.47-24.55c-1.37-3.77-2.14-4.65-6-4.65h-9.46l-15.13 45.81h7.7l3.25-9.87h18l3.28 9.87h13.4zM72.44 40.64V6.9h6.36c3.07 0 5.7 2.34 5.7 5.17a5.05 5.05 0 0 1-1.25 3.32l-4.12 5.71c4.31 1 7.19 4 7.19 9.68 0 6.91-4.46 9.85-10.36 9.85zm16-21.75l2.43-3.32C96 8.55 92.45.93 82.36.93H60.81v45.83h20.78c18.28 0 23.75-19.73 6.84-27.87M34.11 40.64h-3.49V6.9h6.32c3.07 0 5.73 2.34 5.73 5.17a5 5 0 0 1-1.26 3.32l-4.15 5.71c4.33 1 7.2 4 7.2 9.68 0 6.91-4.45 9.85-10.36 9.85m12.49-21.74L49 15.58C54.12 8.55 50.61.93 40.49.93H19v45.83h20.74C58 46.76 63.53 27 46.59 18.89M110.19 6.9c-1.76-5.16-2.65-6-6-6h-8.76l16.17 45.85h11.89L138.56.93h-7.83l-11.16 34.8zM334.88 15.5c-1.88 3.75-3.75 2.5-6.37 1.5a15.47 15.47 0 0 0-5.62-.92 12.74 12.74 0 0 0-7.17 2 11 11 0 0 0-4.3 5.65 16.49 16.49 0 0 0-.94 5.73 17.87 17.87 0 0 0 1.09 6.42 10.94 10.94 0 0 0 3.06 4.37 10.44 10.44 0 0 0 3 1.77 14.5 14.5 0 0 0 5.26.88 14.69 14.69 0 0 0 6.11-1.27c2.53-1.21 4.27-2.6 6.47 1a17.54 17.54 0 0 1-4.17 2.68l-.77.31a21.74 21.74 0 0 1-7.82 1.38 18.89 18.89 0 0 1-10.28-2.73 15 15 0 0 1-6-7.64 21.55 21.55 0 0 1-1.16-7.23 18.27 18.27 0 0 1 2.83-10.28 15.76 15.76 0 0 1 7.72-6 21.14 21.14 0 0 1 7.11-1.16 18.62 18.62 0 0 1 11.94 3.56M466.85 20.93a13.93 13.93 0 0 0-2.19-4 13 13 0 0 0-5.18-3.8 19.59 19.59 0 0 0-6.92-1.16 17.68 17.68 0 0 0-6.65 1.24 15.34 15.34 0 0 0-7.26 6.18A19.42 19.42 0 0 0 436 29.63a21.48 21.48 0 0 0 1.13 7.14 14.46 14.46 0 0 0 5.9 7.55A19.13 19.13 0 0 0 453.42 47a26 26 0 0 0 8.2-1.22 15.63 15.63 0 0 0 6.18-3.6c-2.4-3.23-3.76-1.94-6.53-.75a20.51 20.51 0 0 1-7.52 1.38 16.4 16.4 0 0 1-5.53-.85 9.58 9.58 0 0 1-6-5.92 16.92 16.92 0 0 1-1-5.65h26.75v-1-1.35a21.09 21.09 0 0 0-1.1-7.16m-25.54 5.48a15.92 15.92 0 0 1 1.17-4.18 10.41 10.41 0 0 1 4-4.73 11.27 11.27 0 0 1 6.07-1.57 13.65 13.65 0 0 1 4.18.59 8.14 8.14 0 0 1 2.46 1.31 8.29 8.29 0 0 1 2.57 3.53 16.83 16.83 0 0 1 1 5zM489.82 12.08a14.07 14.07 0 0 0-7.16 2A19.81 19.81 0 0 0 479 16.7a13.45 13.45 0 0 0-.11-2 3.56 3.56 0 0 0-.22-1.08 2.12 2.12 0 0 0-.39-.66 2.49 2.49 0 0 0-.44-.35 1.92 1.92 0 0 0-.79-.26c-.23 0-.48 0-.74-.05h-2.45v34.46H479V22a20.37 20.37 0 0 1 4.6-3.86l.12-.07a11.56 11.56 0 0 1 5.06-1.67c2.38-.21 4-.5 4.21-3.94a12.47 12.47 0 0 0-3.21-.43"/></svg>
